0
SECTION
2
HEADER
9
$INSUNITS
70
4
9
$ACADVER
1
AC1014
9
$HANDSEED
5
FFFF
0
ENDSEC
0
SECTION
2
TABLES
0
TABLE
2
VPORT
5
8
100
AcDbSymbolTable
0
ENDTAB
0
TABLE
2
LTYPE
5
5
100
AcDbSymbolTable
0
LTYPE
5
14
100
AcDbSymbolTableRecord
100
AcDbLinetypeTableRecord
2
BYBLOCK
70
0
0
LTYPE
5
15
100
AcDbSymbolTableRecord
100
AcDbLinetypeTableRecord
2
BYLAYER
70
0
0
ENDTAB
0
TABLE
2
LAYER
5
2
100
AcDbSymbolTable
70
2
0
LAYER
5
50
100
AcDbSymbolTableRecord
100
AcDbLayerTableRecord
2
0
70
0
6
CONTINUOUS
0
ENDTAB
0
TABLE
2
STYLE
5
3
100
AcDbSymbolTable
70
1
0
STYLE
5
11
100
AcDbSymbolTableRecord
100
AcDbTextStyleTableRecord
2
STANDARD
70
0
0
ENDTAB
0
TABLE
2
VIEW
5
6
100
AcDbSymbolTable
70
0
0
ENDTAB
0
TABLE
2
UCS
5
7
100
AcDbSymbolTable
70
0
0
ENDTAB
0
TABLE
2
APPID
5
9
100
AcDbSymbolTable
70
2
0
APPID
5
12
100
AcDbSymbolTableRecord
100
AcDbRegAppTableRecord
2
ACAD
70
0
0
ENDTAB
0
TABLE
2
DIMSTYLE
5
A
100
AcDbSymbolTable
70
1
0
ENDTAB
0
TABLE
2
BLOCK_RECORD
5
1
100
AcDbSymbolTable
70
1
0
BLOCK_RECORD
5
1F
100
AcDbSymbolTableRecord
100
AcDbBlockTableRecord
2
*MODEL_SPACE
0
BLOCK_RECORD
5
1B
100
AcDbSymbolTableRecord
100
AcDbBlockTableRecord
2
*PAPER_SPACE
0
ENDTAB
0
ENDSEC
0
SECTION
2
BLOCKS
0
BLOCK
5
20
100
AcDbEntity
100
AcDbBlockBegin
2
*MODEL_SPACE
0
ENDBLK
5
21
100
AcDbEntity
100
AcDbBlockEnd
0
BLOCK
5
1C
100
AcDbEntity
100
AcDbBlockBegin
2
*PAPER_SPACE
0
ENDBLK
5
1D
100
AcDbEntity
100
AcDbBlockEnd
0
ENDSEC
0
SECTION
2
ENTITIES
0
LWPOLYLINE
5
100
100
AcDbEntity
8
0
100
AcDbPolyline
90
104
70
1
43
0.0
10
-110.45311504257299
20
-3.0069046020107586
10
-110.45311504257305
20
-6.0069047527774266
42
0.41421356237309503
10
-109.70311504257305
20
-6.7569047527774195
10
-81.064128348644701
20
-6.7569047527773574
42
0.41421356237309503
10
-80.314128348644715
20
-6.0069047527773733
10
-80.314128348644701
20
-3.8499957632192947
42
-0.41421356237310542
10
-79.564128348644701
20
-3.0999957632193165
10
-41.064128348644722
20
-3.0999957632192783
42
-0.41421356237309503
10
-40.314128348644694
20
-3.8499957632193067
10
-40.314128348644722
20
-6.0069047527773609
42
0.41421356237309503
10
-39.564128348644722
20
-6.7569047527773627
10
-11.242503905934488
20
-6.7569047527773503
42
0.41421356237308982
10
-10.492503905934488
20
-6.0069047527773467
10
-10.492503905933432
20
-2.5069153986662518
42
-0.41421288872186979
10
-7.9925073625091514
20
-0.0069176920682045839
10
4.0500006520233747
20
0.025006786612586235
42
0.41421315741024889
10
4.7999996150509938
20
0.77500678661186795
10
4.7999996150509929
20
29.224342121066805
42
0.41421356237309936
10
4.0499996150509912
20
29.974342121066798
10
2.1499996150509872
20
29.974342121066762
42
-0.41421356237308771
10
1.3999996150509952
20
30.724342121066776
10
1.399999615050957
20
69.256245247222722
42
-0.41421356237309304
10
2.1499996150509624
20
70.006245247222722
10
4.0499996150509645
20
70.006245247222722
42
0.41421356237308898
10
4.7999996150509681
20
70.756245247222751
10
4.7999996150509752
20
99.20559619421779
42
0.41421356236942486
10
4.0499996150603401
20
99.955596194217776
10
-7.9925039059658829
20
99.955591492175131
42
-0.41421356236942314
10
-10.492503905934187
20
102.45559149217478
10
-10.49250390593453
20
105.98750524722284
42
0.41421356237309503
10
-11.24250390593453
20
106.73750524722283
10
-39.564128348644793
20
106.73750524722287
42
0.41421356237309331
10
-40.314128348644786
20
105.98750524722288
10
-40.314128348648254
20
103.70560107778381
42
-0.41421266676758511
10
-41.064128348644779
20
102.95560337112587
10
-79.564128348644729
20
102.95560337112593
42
-0.41421356237309503
10
-80.314128348644687
20
103.7056033711259
10
-80.314128348644701
20
105.98750524722288
42
0.41421356237309503
10
-81.064128348644687
20
106.73750524722286
10
-109.70412318398408
20
106.73750524722288
42
0.41421356237309503
10
-110.45412318398408
20
105.98750524722288
10
-110.45412318398581
20
102.95559769119095
42
-0.41421401014947623
10
-111.95412318398405
20
101.45559539798501
10
-134.9458696912701
20
101.45559539798577
42
-0.4142135623730846
10
-136.44586969127027
20
102.95559539798597
10
-136.44586969127005
20
105.98750524722288
42
0.41421356237309503
10
-137.19586969127005
20
106.73750524722288
10
-234.27912318398413
20
106.73750524722297
42
0.41421356237309503
10
-235.02912318398415
20
105.98750524722294
10
-235.02912318398583
20
102.95559310478106
42
-0.41421311459685567
10
-236.5291231839841
20
101.45559539798697
10
-259.52086969127015
20
101.45559539798775
42
-0.41421356237309503
10
-261.02086969127021
20
102.95559539798802
10
-261.02086969127004
20
105.98750524722294
42
0.41421356237309503
10
-261.77086969127009
20
106.73750524722301
10
-290.41086834864484
20
106.73750524722273
42
0.41421356237309503
10
-291.16086834864467
20
105.98750524722294
10
-291.16086834864836
20
103.70560107778381
42
-0.41421266676754348
10
-291.91086834864484
20
102.95560337112578
10
-330.41086834864478
20
102.95560337112573
42
-0.41421356237303958
10
-331.16086834864484
20
103.7056033711259
10
-331.16086834864473
20
105.9875052472226
42
0.41421356237309503
10
-331.91086834864512
20
106.73750524722297
10
-360.23428609420387
20
106.73750524722305
42
0.41421356237309503
10
-360.98428609420387
20
105.98750524722304
10
-360.98428607916696
20
102.45560619217967
42
-0.41421288872160378
10
-363.4842826374902
20
99.955608470680374
10
-375.52500103697366
20
99.955596539905699
42
0.4142131574097167
10
-376.27500000000026
20
99.205596539906097
10
-376.2750000000002
20
70.756245247222381
42
0.41421356237319906
10
-375.52500000000009
20
70.00624524722258
10
-373.52499961505117
20
70.006245247222665
42
-0.414213562372999
10
-372.87499961505142
20
69.356245247222688
10
-372.87499961505443
20
30.724339827724499
42
-0.41421266676758683
10
-373.62499961505102
20
29.974342121066549
10
-375.52500000000015
20
29.974342121066581
42
0.41421356237310025
10
-376.2750000000002
20
29.224342121066556
10
-376.2750000000002
20
0.77500713227058871
42
0.41421356237273421
10
-375.52500000000123
20
0.02500713227070267
10
-363.48249999999672
20
-0.006900696092880243
42
-0.41421325729806791
10
-360.98250000000132
20
-2.5068980921176358
10
-360.98249635445688
20
-6.0069055339702073
42
0.41421325729845043
10
-360.23249635445723
20
-6.7569047527777109
10
-331.91086834864484
20
-6.7569047527773503
42
0.41421356237309503
10
-331.16086834864507
20
-6.0069047527775066
10
-331.16086834864467
20
-3.8499957632196233
42
-0.41421356237298407
10
-330.41086834864473
20
-3.0999957632193889
10
-291.91086834864484
20
-3.0999957632194453
42
-0.41421356237313667
10
-291.16086834864484
20
-3.8499957632193316
10
-291.16086834864484
20
-6.0069047527774355
42
0.41421356237309503
10
-290.41086834864473
20
-6.7569047527775705
10
-261.771891166015
20
-6.7569047527774124
42
0.41421356237309503
10
-261.02189116601517
20
-6.006904752777551
10
-261.02189116601318
20
-3.00690230869604
42
-0.41421311457551774
10
-259.52189116601522
20
-1.5069046020108334
10
-236.42811504257304
20
-1.506904602010819
42
-0.4142135623730529
10
-234.92811504257304
20
-3.0069046020107311
10
-234.9281150425731
20
-6.0069047527775288
42
0.41421356237309503
10
-234.17811504257315
20
-6.7569047527774861
10
-137.29689116601494
20
-6.7569047527773787
42
0.41421356237309503
10
-136.54689116601503
20
-6.0069047527774488
10
-136.5468911660133
20
-3.0069068952166935
42
-0.4142140101494961
10
-135.04689116601494
20
-1.5069046020107852
10
-111.95311504257303
20
-1.506904602010755
42
-0.41421356237310197
0
LWPOLYLINE
5
101
100
AcDbEntity
8
0
100
AcDbPolyline
90
8
70
1
43
0.0
10
-117.575
20
2.5250000013521494
10
-130.07499999999999
20
2.525000001352157
42
-0.41421356237309503
10
-130.82499999999999
20
3.2750000013521499
10
-130.82499999999999
20
15.775000001352151
42
-0.41421356237309503
10
-130.07499999999999
20
16.525000001352151
10
-117.575
20
16.525000001352144
42
-0.41421356237309503
10
-116.82500000000002
20
15.775000001352151
10
-116.82500000000002
20
3.2750000013521507
42
-0.41421356237309548
0
LWPOLYLINE
5
102
100
AcDbEntity
8
0
100
AcDbPolyline
90
8
70
1
43
0.0
10
-187.97499999999999
20
3.2750000013521503
10
-187.97499999999999
20
15.775000001352151
42
-0.41421356237309503
10
-187.22499999999999
20
16.525000001352151
10
-174.72499999999999
20
16.525000001352144
42
-0.41421356237309503
10
-173.97500000000002
20
15.775000001352151
10
-173.97500000000002
20
3.2750000013521507
42
-0.41421356237309548
10
-174.72499999999999
20
2.5250000013521494
10
-187.22499999999999
20
2.525000001352157
42
-0.41421356237309531
0
LWPOLYLINE
5
103
100
AcDbEntity
8
0
100
AcDbPolyline
90
8
70
1
43
0.0
10
-155.67500000000001
20
2.5250000013521494
10
-168.17500000000001
20
2.525000001352157
42
-0.41421356237309503
10
-168.92500000000001
20
3.2750000013521499
10
-168.92500000000001
20
15.775000001352151
42
-0.41421356237309503
10
-168.17500000000001
20
16.525000001352151
10
-155.67500000000001
20
16.525000001352144
42
-0.41421356237309503
10
-154.92500000000004
20
15.775000001352151
10
-154.92500000000004
20
3.2750000013521507
42
-0.41421356237309548
0
LWPOLYLINE
5
104
100
AcDbEntity
8
0
100
AcDbPolyline
90
8
70
1
43
0.0
10
-136.625
20
2.5250000013521494
10
-149.125
20
2.525000001352157
42
-0.41421356237309503
10
-149.875
20
3.2750000013521499
10
-149.875
20
15.775000001352151
42
-0.41421356237309503
10
-149.125
20
16.525000001352151
10
-136.625
20
16.525000001352144
42
-0.41421356237309503
10
-135.87500000000003
20
15.775000001352151
10
-135.87500000000003
20
3.2750000013521507
42
-0.41421356237309548
0
LWPOLYLINE
5
105
100
AcDbEntity
8
0
100
AcDbPolyline
90
8
70
1
43
0.0
10
-231.875
20
2.5250000013521494
10
-244.375
20
2.525000001352157
42
-0.41421356237309503
10
-245.125
20
3.2750000013521499
10
-245.125
20
15.775000001352151
42
-0.41421356237309503
10
-244.375
20
16.525000001352151
10
-231.875
20
16.525000001352144
42
-0.41421356237309503
10
-231.125
20
15.775000001352151
10
-231.125
20
3.2750000013521507
42
-0.41421356237309548
0
LWPOLYLINE
5
106
100
AcDbEntity
8
0
100
AcDbPolyline
90
8
70
1
43
0.0
10
-212.82499999999999
20
2.5250000013521494
10
-225.32499999999999
20
2.525000001352157
42
-0.41421356237309503
10
-226.07499999999999
20
3.2750000013521499
10
-226.07499999999999
20
15.775000001352151
42
-0.41421356237309503
10
-225.32499999999999
20
16.525000001352151
10
-212.82499999999999
20
16.525000001352144
42
-0.41421356237309503
10
-212.07499999999999
20
15.775000001352151
10
-212.07499999999999
20
3.2750000013521507
42
-0.41421356237309548
0
LWPOLYLINE
5
107
100
AcDbEntity
8
0
100
AcDbPolyline
90
20
70
1
43
0.0
10
-251.262
20
17.775000001352147
10
-251.262
20
16.525000001352151
10
-250.92500000000001
20
16.525000001352144
42
-0.41421356237309503
10
-250.17500000000001
20
15.775000001352151
10
-250.17500000000001
20
3.2750000013521507
42
-0.41421356237309548
10
-250.92500000000001
20
2.5250000013521494
10
-282.47500000000002
20
2.525000001352157
42
-0.41421356237309503
10
-283.22500000000002
20
3.2750000013521499
10
-283.22500000000002
20
15.775000001352151
42
-0.41421356237309503
10
-282.47500000000002
20
16.525000001352151
10
-282.13799999999998
20
16.525000001352147
10
-282.13799999999998
20
17.775000001352147
42
-0.41421356237309503
10
-281.38799999999998
20
18.525000001352147
10
-275.88799999999998
20
18.52500000135214
42
-0.41421356237309503
10
-275.13799999999998
20
17.775000001352147
10
-275.13799999999998
20
16.525000001352147
10
-258.262
20
16.525000001352151
10
-258.262
20
17.775000001352147
42
-0.41421356237309503
10
-257.512
20
18.525000001352147
10
-252.012
20
18.52500000135214
42
-0.41421356237309503
0
LWPOLYLINE
5
108
100
AcDbEntity
8
0
100
AcDbPolyline
90
8
70
1
43
0.0
10
-193.77500000000001
20
2.5250000013521494
10
-206.27500000000001
20
2.525000001352157
42
-0.41421356237309503
10
-207.02500000000001
20
3.2750000013521499
10
-207.02500000000001
20
15.775000001352151
42
-0.41421356237309503
10
-206.27500000000001
20
16.525000001352151
10
-193.77500000000001
20
16.525000001352144
42
-0.41421356237309503
10
-193.02500000000003
20
15.775000001352151
10
-193.02500000000003
20
3.2750000013521507
42
-0.41421356237309548
0
LWPOLYLINE
5
109
100
AcDbEntity
8
0
100
AcDbPolyline
90
8
70
1
43
0.0
10
-8.037500000000005
20
21.575000001352148
10
-20.537500000000005
20
21.575000001352148
42
-0.41421356237309503
10
-21.287500000000005
20
22.325000001352148
10
-21.287500000000005
20
34.825000001352151
42
-0.41421356237309503
10
-20.537500000000005
20
35.575000001352151
10
-8.037500000000005
20
35.575000001352151
42
-0.41421356237309681
10
-7.2874999999999996
20
34.825000001352151
10
-7.2874999999999979
20
22.325000001352148
42
-0.41421356237309725
0
LWPOLYLINE
5
110
100
AcDbEntity
8
0
100
AcDbPolyline
90
8
70
1
43
0.0
10
-336.64999999999998
20
2.5250000013521494
10
-349.14999999999998
20
2.5250000013521214
42
-0.41421356237309503
10
-349.90000000000003
20
3.2750000013521499
10
-349.90000000000003
20
15.775000001352151
42
-0.41421356237309503
10
-349.14999999999998
20
16.525000001352151
10
-336.64999999999998
20
16.525000001352179
42
-0.41421356237309503
10
-335.89999999999998
20
15.775000001352151
10
-335.89999999999998
20
3.2750000013521507
42
-0.41421356237309548
0
LWPOLYLINE
5
111
100
AcDbEntity
8
0
100
AcDbPolyline
90
8
70
1
43
0.0
10
-317.60000000000002
20
2.5250000013521494
10
-330.10000000000002
20
2.5250000013521214
42
-0.41421356237309503
10
-330.85000000000008
20
3.2750000013521499
10
-330.85000000000008
20
15.775000001352151
42
-0.41421356237309503
10
-330.10000000000002
20
16.525000001352151
10
-317.60000000000002
20
16.525000001352144
42
-0.41421356237309503
10
-316.85000000000008
20
15.775000001352151
10
-316.85000000000008
20
3.2750000013521507
42
-0.41421356237309548
0
LWPOLYLINE
5
112
100
AcDbEntity
8
0
100
AcDbPolyline
90
8
70
1
43
0.0
10
-355.69999999999999
20
2.5250000013521494
10
-368.19999999999999
20
2.5250000013521214
42
-0.41421356237309503
10
-368.95000000000005
20
3.2750000013521499
10
-368.95000000000005
20
15.775000001352151
42
-0.41421356237309503
10
-368.19999999999999
20
16.525000001352151
10
-355.69999999999999
20
16.525000001352179
42
-0.41421356237309503
10
-354.94999999999999
20
15.775000001352151
10
-354.94999999999999
20
3.2750000013521507
42
-0.41421356237309548
0
LWPOLYLINE
5
113
100
AcDbEntity
8
0
100
AcDbPolyline
90
8
70
1
43
0.0
10
-298.55000000000007
20
2.5250000013521494
10
-311.05000000000007
20
2.525000001352157
42
-0.41421356237309503
10
-311.80000000000001
20
3.2750000013521499
10
-311.80000000000001
20
15.775000001352151
42
-0.41421356237309503
10
-311.05000000000007
20
16.525000001352151
10
-298.55000000000007
20
16.525000001352144
42
-0.41421356237309503
10
-297.80000000000007
20
15.775000001352151
10
-297.80000000000007
20
3.2750000013521507
42
-0.41421356237309548
0
LWPOLYLINE
5
114
100
AcDbEntity
8
0
100
AcDbPolyline
90
8
70
1
43
0.0
10
-3.2750000000000004
20
2.5250000013521494
42
0.41421356237309503
10
-2.5249999999999999
20
3.2750000013521507
10
-2.5249999999999999
20
15.775000001352151
42
0.41421356237309548
10
-3.2750000000000012
20
16.525000001352151
10
-15.775000000000002
20
16.525000001352151
42
0.41421356237309503
10
-16.524999999999995
20
15.775000001352151
10
-16.525000000000002
20
3.2750000013521499
42
0.41421356237309503
10
-15.775000000000002
20
2.5250000013521494
0
LWPOLYLINE
5
115
100
AcDbEntity
8
0
100
AcDbPolyline
90
8
70
1
43
0.0
10
-22.324999999999996
20
2.5250000013521494
10
-34.825000000000003
20
2.5250000013521481
42
-0.41421356237309503
10
-35.575000000000003
20
3.2750000013521499
10
-35.575000000000003
20
15.775000001352151
42
-0.41421356237309503
10
-34.825000000000003
20
16.525000001352151
10
-22.324999999999996
20
16.525000001352154
42
-0.41421356237309331
10
-21.574999999999996
20
15.775000001352151
10
-21.574999999999996
20
3.2750000013521507
42
-0.4142135623730937
0
LWPOLYLINE
5
116
100
AcDbEntity
8
0
100
AcDbPolyline
90
8
70
1
43
0.0
10
-54.625
20
3.2750000013521503
10
-54.625
20
15.775000001352151
42
-0.41421356237309503
10
-53.875
20
16.525000001352151
10
-41.375
20
16.525000001352154
42
-0.41421356237309503
10
-40.625
20
15.775000001352151
10
-40.625
20
3.2750000013521507
42
-0.41421356237309548
10
-41.375
20
2.5250000013521494
10
-53.875
20
2.5250000013521481
42
-0.41421356237309531
0
LWPOLYLINE
5
117
100
AcDbEntity
8
0
100
AcDbPolyline
90
8
70
1
43
0.0
10
-60.425000000000004
20
2.5250000013521494
10
-72.925000000000011
20
2.5250000013521481
42
-0.41421356237309503
10
-73.675000000000011
20
3.2750000013521499
10
-73.675000000000011
20
15.775000001352151
42
-0.41421356237309503
10
-72.925000000000011
20
16.525000001352151
10
-60.425000000000004
20
16.525000001352154
42
-0.41421356237309503
10
-59.675000000000004
20
15.775000001352151
10
-59.675000000000004
20
3.2750000013521507
42
-0.41421356237309548
0
LWPOLYLINE
5
118
100
AcDbEntity
8
0
100
AcDbPolyline
90
8
70
1
43
0.0
10
-79.474999999999994
20
2.5250000013521494
10
-91.974999999999994
20
2.525000001352157
42
-0.41421356237309503
10
-92.724999999999994
20
3.2750000013521499
10
-92.724999999999994
20
15.775000001352151
42
-0.41421356237309503
10
-91.974999999999994
20
16.525000001352151
10
-79.474999999999994
20
16.525000001352154
42
-0.41421356237309503
10
-78.724999999999994
20
15.775000001352151
10
-78.724999999999994
20
3.2750000013521507
42
-0.41421356237309548
0
LWPOLYLINE
5
119
100
AcDbEntity
8
0
100
AcDbPolyline
90
8
70
1
43
0.0
10
-98.525000000000006
20
2.5250000013521494
10
-111.02500000000001
20
2.525000001352157
42
-0.41421356237309503
10
-111.77500000000001
20
3.2750000013521499
10
-111.77500000000001
20
15.775000001352151
42
-0.41421356237309503
10
-111.02500000000001
20
16.525000001352151
10
-98.525000000000006
20
16.525000001352144
42
-0.41421356237309503
10
-97.77500000000002
20
15.775000001352151
10
-97.77500000000002
20
3.2750000013521507
42
-0.41421356237309548
0
LWPOLYLINE
5
120
100
AcDbEntity
8
0
100
AcDbPolyline
90
8
70
1
43
0.0
10
-317.60000000000002
20
59.67500000135216
42
0.41421356237309503
10
-316.85000000000008
20
60.425000001352146
10
-316.85000000000008
20
72.925000001352146
42
0.41421356237309503
10
-317.60000000000002
20
73.675000001352146
10
-330.10000000000002
20
73.67500000135216
42
0.41421356237309503
10
-330.85000000000008
20
72.925000001352146
10
-330.85000000000008
20
60.425000001352146
42
0.41421356237309503
10
-330.10000000000002
20
59.675000001352139
0
LWPOLYLINE
5
121
100
AcDbEntity
8
0
100
AcDbPolyline
90
8
70
1
43
0.0
10
-298.55000000000007
20
59.675000001352139
10
-311.05000000000007
20
59.67500000135216
42
-0.41421356237309503
10
-311.80000000000001
20
60.425000001352146
10
-311.80000000000007
20
72.925000001352146
42
-0.41421356237309503
10
-311.05000000000007
20
73.67500000135216
10
-298.55000000000007
20
73.675000001352146
42
-0.41421356237309503
10
-297.80000000000007
20
72.925000001352146
10
-297.80000000000001
20
60.425000001352146
42
-0.41421356237309503
0
LWPOLYLINE
5
122
100
AcDbEntity
8
0
100
AcDbPolyline
90
8
70
1
43
0.0
10
-336.64999999999998
20
59.67500000135216
42
0.41421356237309503
10
-335.89999999999998
20
60.425000001352146
10
-335.89999999999998
20
72.925000001352146
42
0.41421356237309503
10
-336.64999999999998
20
73.675000001352174
10
-349.14999999999998
20
73.67500000135216
42
0.41421356237309503
10
-349.90000000000003
20
72.925000001352146
10
-349.90000000000003
20
60.425000001352146
42
0.41421356237309503
10
-349.14999999999998
20
59.675000001352139
0
LWPOLYLINE
5
123
100
AcDbEntity
8
0
100
AcDbPolyline
90
8
70
1
43
0.0
10
-257.03125
20
60.425000001352146
10
-257.03125
20
72.925000001352146
42
-0.41421356237309503
10
-256.28125
20
73.67500000135216
10
-243.78125
20
73.675000001352146
42
-0.41421356237309503
10
-243.03125
20
72.925000001352146
10
-243.03125
20
60.425000001352146
42
-0.41421356237309503
10
-243.78125
20
59.67500000135216
10
-256.28125
20
59.67500000135216
42
-0.41421356237309503
0
LWPOLYLINE
5
124
100
AcDbEntity
8
0
100
AcDbPolyline
90
8
70
1
43
0.0
10
-21.287499999999998
20
79.475000001352143
10
-21.287499999999998
20
91.975000001352143
42
-0.41421356237309503
10
-20.537500000000005
20
92.725000001352129
10
-5.6562500000000027
20
92.725000001352129
42
-0.41421356237309592
10
-4.90625
20
91.975000001352143
10
-4.9062500000000071
20
79.475000001352143
42
-0.41421356237309503
10
-5.65625
20
78.725000001352157
10
-20.537500000000005
20
78.725000001352157
42
-0.41421356237309503
0
LWPOLYLINE
5
125
100
AcDbEntity
8
0
100
AcDbPolyline
90
8
70
1
43
0.0
10
-287.98750000000001
20
65.187500001352149
10
-287.98750000000007
20
77.687500001352149
42
-0.41421356237309503
10
-287.23750000000001
20
78.437500001352163
10
-274.73750000000001
20
78.437500001352149
42
-0.41421356237309503
10
-273.98750000000001
20
77.687500001352149
10
-273.98750000000001
20
65.187500001352149
42
-0.41421356237309503
10
-274.73750000000001
20
64.437500001352163
10
-287.23750000000001
20
64.437500001352163
42
-0.41421356237309503
0
LWPOLYLINE
5
126
100
AcDbEntity
8
0
100
AcDbPolyline
90
11
70
1
43
0.0
10
-27.087499999999999
20
78.725000001352129
10
-63.174999999999997
20
78.725000001352129
10
-63.175000000000011
20
78.475000001352143
42
-0.41421356237309503
10
-63.924999999999997
20
77.725000001352157
10
-69.424999999999997
20
77.725000001352143
42
-0.41421356237309503
10
-70.174999999999997
20
78.475000001352143
10
-70.175000000000011
20
91.975000001352143
42
-0.41421356237309503
10
-69.424999999999997
20
92.725000001352157
10
-27.087499999999991
20
92.725000001352129
42
-0.41421356237309159
10
-26.337499999999999
20
91.975000001352143
10
-26.337499999999991
20
79.475000001352143
42
-0.41421356237309331
0
LWPOLYLINE
5
127
100
AcDbEntity
8
0
100
AcDbPolyline
90
14
70
1
43
0.0
10
-73.450000000000003
20
77.725000001352129
10
-88.443250000000006
20
77.725000001352157
42
-0.41421356237309503
10
-89.193250000000006
20
78.475000001352143
10
-89.193250000000006
20
78.725000001352129
10
-101.30674999999999
20
78.725000001352129
10
-101.30674999999999
20
78.475000001352143
42
-0.41421356237309503
10
-102.05674999999999
20
77.725000001352157
10
-112.31925000000001
20
77.725000001352157
42
-0.41421356237309503
10
-113.06925
20
78.475000001352143
10
-113.06925000000001
20
91.975000001352143
42
-0.41421356237309503
10
-112.31925000000001
20
92.725000001352157
10
-73.450000000000003
20
92.725000001352129
42
-0.41421356237309503
10
-72.700000000000003
20
91.975000001352143
10
-72.699999999999989
20
78.475000001352143
42
-0.41421356237309503
0
LWPOLYLINE
5
128
100
AcDbEntity
8
0
100
AcDbPolyline
90
8
70
1
43
0.0
10
-117.575
20
78.725000001352129
10
-141.98124999999999
20
78.725000001352157
42
-0.41421356237309503
10
-142.73124999999999
20
79.475000001352143
10
-142.73124999999999
20
91.975000001352143
42
-0.41421356237309503
10
-141.98124999999999
20
92.725000001352129
10
-117.575
20
92.725000001352129
42
-0.41421356237309503
10
-116.82500000000002
20
91.975000001352143
10
-116.82499999999999
20
79.475000001352143
42
-0.41421356237309503
0
LWPOLYLINE
5
129
100
AcDbEntity
8
0
100
AcDbPolyline
90
14
70
1
43
0.0
10
-149.61824999999999
20
77.725000001352157
10
-159.88075000000003
20
77.725000001352157
42
-0.41421356237309503
10
-160.63075000000001
20
78.475000001352143
10
-160.63075000000001
20
78.725000001352129
10
-167.94999999999999
20
78.725000001352129
10
-167.95000000000002
20
78.475000001352143
42
-0.41421356237309503
10
-168.70000000000002
20
77.725000001352157
10
-183.71875
20
77.725000001352115
42
-0.41421356237309503
10
-184.46875000000003
20
78.475000001352143
10
-184.46875
20
91.975000001352143
42
-0.41421356237309503
10
-183.71875
20
92.725000001352157
10
-149.61824999999999
20
92.725000001352129
42
-0.41421356237309503
10
-148.86824999999999
20
91.975000001352143
10
-148.86824999999999
20
78.475000001352143
42
-0.41421356237309503
0
LWPOLYLINE
5
130
100
AcDbEntity
8
0
100
AcDbPolyline
90
8
70
1
43
0.0
10
-186.63125000000002
20
78.725000001352129
10
-220.56250000000003
20
78.725000001352157
42
-0.41421356237309503
10
-221.3125
20
79.475000001352143
10
-221.3125
20
91.975000001352143
42
-0.41421356237309503
10
-220.56250000000003
20
92.725000001352129
10
-186.63125000000002
20
92.725000001352129
42
-0.41421356237309503
10
-185.88125000000002
20
91.975000001352143
10
-185.88124999999997
20
79.475000001352143
42
-0.41421356237309503
0
LWPOLYLINE
5
131
100
AcDbEntity
8
0
100
AcDbPolyline
90
8
70
1
43
0.0
10
-274.73750000000001
20
83.487500001352146
10
-287.23750000000001
20
83.487500001352146
42
-0.41421356237309503
10
-287.98750000000001
20
84.237500001352146
10
-287.98750000000001
20
96.737500001352146
42
-0.41421356237309503
10
-287.23750000000001
20
97.487500001352146
10
-274.73750000000001
20
97.487500001352146
42
-0.41421356237309503
10
-273.98750000000001
20
96.737500001352146
10
-273.98750000000001
20
84.237500001352146
42
-0.41421356237309503
0
LWPOLYLINE
5
132
100
AcDbEntity
8
0
100
AcDbPolyline
90
8
70
1
43
0.0
10
-293.78750000000002
20
83.487500001352146
42
0.41421356237309503
10
-293.03750000000002
20
84.237500001352146
10
-293.03750000000002
20
96.737500001352146
42
0.41421356237309503
10
-293.78750000000002
20
97.487500001352146
10
-306.28750000000002
20
97.487500001352146
42
0.41421356237309503
10
-307.03750000000002
20
96.737500001352146
10
-307.03750000000002
20
84.237500001352146
42
0.41421356237309503
10
-306.28750000000002
20
83.487500001352146
0
LWPOLYLINE
5
133
100
AcDbEntity
8
0
100
AcDbPolyline
90
8
70
1
43
0.0
10
-255.6875
20
83.487500001352146
10
-268.1875
20
83.487500001352146
42
-0.41421356237309503
10
-268.9375
20
84.237500001352146
10
-268.9375
20
96.737500001352146
42
-0.41421356237309503
10
-268.1875
20
97.487500001352146
10
-255.6875
20
97.487500001352146
42
-0.41421356237309503
10
-254.93750000000003
20
96.737500001352146
10
-254.93750000000003
20
84.237500001352146
42
-0.41421356237309503
0
LWPOLYLINE
5
134
100
AcDbEntity
8
0
100
AcDbPolyline
90
20
70
1
43
0.0
10
-368.95000000000005
20
60.425000001352146
10
-368.94999999999993
20
91.975000001352143
42
-0.41421356237309503
10
-368.19999999999999
20
92.725000001352129
10
-355.69999999999999
20
92.725000001352171
42
-0.41421356237309503
10
-354.94999999999999
20
91.975000001352143
10
-354.94999999999999
20
91.63800000135214
10
-353.69999999999999
20
91.638000001352168
42
-0.41421356237309503
10
-352.94999999999993
20
90.88800000135214
10
-352.95000000000005
20
85.38800000135214
42
-0.41421356237309503
10
-353.69999999999999
20
84.638000001352154
10
-354.94999999999999
20
84.63800000135214
10
-354.94999999999999
20
67.762000001352135
10
-353.69999999999999
20
67.762000001352177
42
-0.41421356237309503
10
-352.94999999999993
20
67.012000001352149
10
-352.95000000000005
20
61.512000001352135
42
-0.41421356237309503
10
-353.69999999999999
20
60.762000001352149
10
-354.94999999999999
20
60.762000001352149
10
-354.95000000000005
20
60.425000001352146
42
-0.41421356237309503
10
-355.69999999999999
20
59.67500000135216
10
-368.19999999999999
20
59.675000001352117
42
-0.41421356237309503
0
LWPOLYLINE
5
135
100
AcDbEntity
8
0
100
AcDbPolyline
90
8
70
1
43
0.0
10
-317.60000000000002
20
78.725000001352129
10
-330.10000000000002
20
78.725000001352115
42
-0.41421356237309503
10
-330.85000000000008
20
79.475000001352143
10
-330.85000000000008
20
91.975000001352143
42
-0.41421356237309503
10
-330.10000000000002
20
92.725000001352129
10
-317.60000000000002
20
92.725000001352129
42
-0.41421356237309503
10
-316.85000000000008
20
91.975000001352143
10
-316.85000000000002
20
79.475000001352143
42
-0.41421356237309503
0
LWPOLYLINE
5
136
100
AcDbEntity
8
0
100
AcDbPolyline
90
8
70
1
43
0.0
10
-336.64999999999998
20
78.725000001352129
10
-349.14999999999998
20
78.725000001352115
42
-0.41421356237309503
10
-349.90000000000003
20
79.475000001352143
10
-349.89999999999998
20
91.975000001352143
42
-0.41421356237309503
10
-349.14999999999998
20
92.725000001352129
10
-336.64999999999998
20
92.725000001352171
42
-0.41421356237309503
10
-335.89999999999998
20
91.975000001352143
10
-335.89999999999998
20
79.475000001352143
42
-0.41421356237309503
0
LWPOLYLINE
5
137
100
AcDbEntity
8
0
100
AcDbPolyline
90
8
70
1
43
0.0
10
-227.11250000000004
20
78.725000001352129
10
-241.99375000000003
20
78.725000001352157
42
-0.41421356237309503
10
-242.74375000000003
20
79.475000001352143
10
-242.74375000000003
20
91.975000001352143
42
-0.41421356237309503
10
-241.99375000000003
20
92.725000001352129
10
-227.11250000000004
20
92.725000001352129
42
-0.41421356237309503
10
-226.36250000000004
20
91.975000001352143
10
-226.36250000000004
20
79.475000001352143
42
-0.41421356237309503
0
LWPOLYLINE
5
138
100
AcDbEntity
8
0
100
AcDbPolyline
90
8
70
1
43
0.0
10
-298.55000000000007
20
21.575000001352148
10
-311.05000000000007
20
21.575000001352155
42
-0.41421356237309503
10
-311.80000000000001
20
22.325000001352148
10
-311.80000000000001
20
34.825000001352151
42
-0.41421356237309503
10
-311.05000000000007
20
35.575000001352151
10
-298.55000000000007
20
35.575000001352144
42
-0.41421356237309503
10
-297.80000000000007
20
34.825000001352151
10
-297.80000000000007
20
22.325000001352148
42
-0.41421356237309503
0
LWPOLYLINE
5
139
100
AcDbEntity
8
0
100
AcDbPolyline
90
8
70
1
43
0.0
10
-317.60000000000002
20
21.575000001352148
10
-330.10000000000002
20
21.575000001352119
42
-0.41421356237309503
10
-330.85000000000008
20
22.325000001352148
10
-330.85000000000008
20
34.825000001352151
42
-0.41421356237309503
10
-330.10000000000002
20
35.575000001352151
10
-317.60000000000002
20
35.575000001352144
42
-0.41421356237309503
10
-316.85000000000008
20
34.825000001352151
10
-316.85000000000008
20
22.325000001352148
42
-0.41421356237309503
0
LWPOLYLINE
5
140
100
AcDbEntity
8
0
100
AcDbPolyline
90
8
70
1
43
0.0
10
-336.64999999999998
20
21.575000001352148
10
-349.14999999999998
20
21.575000001352119
42
-0.41421356237309503
10
-349.90000000000003
20
22.325000001352148
10
-349.90000000000003
20
34.825000001352151
42
-0.41421356237309503
10
-349.14999999999998
20
35.575000001352151
10
-336.64999999999998
20
35.57500000135218
42
-0.41421356237309503
10
-335.89999999999998
20
34.825000001352151
10
-335.89999999999998
20
22.325000001352148
42
-0.41421356237309503
0
LWPOLYLINE
5
141
100
AcDbEntity
8
0
100
AcDbPolyline
90
8
70
1
43
0.0
10
-23.668749999999999
20
41.375000001352134
10
-23.66875000000001
20
53.875000001352134
42
-0.41421356237309503
10
-22.918750000000003
20
54.625000001352149
10
-5.6562500000000027
20
54.625000001352142
42
-0.41421356237309592
10
-4.90625
20
53.875000001352134
10
-4.9062500000000071
20
41.375000001352134
42
-0.41421356237309503
10
-5.65625
20
40.625000001352149
10
-22.918750000000006
20
40.625000001352149
42
-0.41421356237309331
0
LWPOLYLINE
5
142
100
AcDbEntity
8
0
100
AcDbPolyline
90
8
70
1
43
0.0
10
-336.64999999999998
20
40.625000001352149
10
-349.14999999999998
20
40.625000001352106
42
-0.41421356237309503
10
-349.90000000000003
20
41.375000001352134
10
-349.90000000000003
20
53.875000001352134
42
-0.41421356237309503
10
-349.14999999999998
20
54.625000001352149
10
-336.64999999999998
20
54.625000001352163
42
-0.41421356237309503
10
-335.89999999999998
20
53.875000001352134
10
-335.90000000000003
20
41.375000001352134
42
-0.41421356237309503
0
LWPOLYLINE
5
143
100
AcDbEntity
8
0
100
AcDbPolyline
90
8
70
1
43
0.0
10
-317.60000000000002
20
40.625000001352149
10
-330.10000000000002
20
40.625000001352106
42
-0.41421356237309503
10
-330.85000000000008
20
41.375000001352134
10
-330.85000000000008
20
53.875000001352134
42
-0.41421356237309503
10
-330.10000000000002
20
54.625000001352149
10
-317.60000000000002
20
54.625000001352134
42
-0.41421356237309503
10
-316.85000000000008
20
53.875000001352134
10
-316.85000000000008
20
41.375000001352134
42
-0.41421356237309503
0
LWPOLYLINE
5
144
100
AcDbEntity
8
0
100
AcDbPolyline
90
20
70
1
43
0.0
10
-354.94999999999999
20
29.662000001352151
10
-353.69999999999999
20
29.662000001352176
42
-0.41421356237309503
10
-352.94999999999993
20
28.912000001352148
10
-352.94999999999993
20
23.412000001352151
42
-0.41421356237309503
10
-353.69999999999999
20
22.662000001352148
10
-354.94999999999999
20
22.662000001352148
10
-354.94999999999999
20
22.325000001352148
42
-0.41421356237309503
10
-355.69999999999999
20
21.575000001352148
10
-368.19999999999999
20
21.575000001352119
42
-0.41421356237309503
10
-368.95000000000005
20
22.325000001352148
10
-368.95000000000005
20
53.875000001352134
42
-0.41421356237309503
10
-368.19999999999999
20
54.625000001352149
10
-355.69999999999999
20
54.625000001352163
42
-0.41421356237309503
10
-354.94999999999999
20
53.875000001352134
10
-354.94999999999999
20
53.538000001352145
10
-353.69999999999999
20
53.538000001352174
42
-0.41421356237309503
10
-352.94999999999993
20
52.788000001352145
10
-352.95000000000005
20
47.288000001352145
42
-0.41421356237309503
10
-353.69999999999999
20
46.538000001352145
10
-354.94999999999999
20
46.538000001352145
0
LWPOLYLINE
5
145
100
AcDbEntity
8
0
100
AcDbPolyline
90
8
70
1
43
0.0
10
-298.55000000000007
20
40.625000001352149
10
-311.05000000000007
20
40.625000001352149
42
-0.41421356237309503
10
-311.80000000000001
20
41.375000001352134
10
-311.80000000000007
20
53.875000001352134
42
-0.41421356237309503
10
-311.05000000000007
20
54.625000001352149
10
-298.55000000000007
20
54.625000001352134
42
-0.41421356237309503
10
-297.80000000000007
20
53.875000001352134
10
-297.80000000000007
20
41.375000001352134
42
-0.41421356237309503
0
LWPOLYLINE
5
146
100
AcDbEntity
8
0
100
AcDbPolyline
90
42
70
1
43
0.0
10
-279.84375
20
23.412000001352151
10
-279.84375
20
28.912000001352148
42
-0.41421356237309503
10
-279.09375
20
29.662000001352151
10
-278.46249999999998
20
29.662000001352151
10
-278.46249999999998
20
31.100000001352154
10
-280.09375
20
31.100000001352161
42
-0.41421356237309503
10
-280.84375
20
31.850000001352154
10
-280.84375
20
44.35000000135215
42
-0.41421356237309503
10
-280.09375
20
45.100000001352157
10
-279.75675000000001
20
45.100000001352143
10
-279.75675000000001
20
46.937384827693108
42
-0.12221452534101397
10
-279.84375
20
47.288000001352145
10
-279.84375000000006
20
52.788000001352145
42
-0.12221452534102997
10
-279.75675000000001
20
53.138615175011239
10
-279.75675000000001
20
55.875000001352149
42
-0.41421356237309503
10
-279.00675000000001
20
56.625000001352163
10
-273.50675000000001
20
56.625000001352142
42
-0.41421356237309503
10
-272.75675000000001
20
55.875000001352149
10
-272.75675000000001
20
53.538000001352145
10
-271.31875000000002
20
53.538000001352145
10
-271.31875000000008
20
53.875000001352134
42
-0.41421356237309503
10
-270.56875000000002
20
54.625000001352149
10
-255.88075000000003
20
54.625000001352149
10
-255.88075000000003
20
55.875000001352149
42
-0.41421356237309503
10
-255.13075000000001
20
56.625000001352163
10
-249.63075000000003
20
56.625000001352142
42
-0.41421356237309503
10
-248.88075000000003
20
55.875000001352149
10
-248.88075000000001
20
54.625000001352149
10
-246.16250000000002
20
54.625000001352134
42
-0.41421356237309503
10
-245.41250000000002
20
53.875000001352134
10
-245.41250000000002
20
41.375000001352134
42
-0.41421356237309503
10
-246.16250000000002
20
40.625000001352149
10
-266.84375
20
40.625000001352149
10
-266.84375
20
35.575000001352151
10
-265.21249999999998
20
35.575000001352144
42
-0.41421356237309503
10
-264.46249999999998
20
34.825000001352151
10
-264.46249999999998
20
22.325000001352148
42
-0.41421356237309503
10
-265.21249999999998
20
21.575000001352148
10
-277.71249999999998
20
21.575000001352155
42
-0.41421356237309503
10
-278.46249999999998
20
22.325000001352148
10
-278.46249999999998
20
22.662000001352148
10
-279.09375
20
22.662000001352158
42
-0.41421356237309503
0
LWPOLYLINE
5
147
100
AcDbEntity
8
0
100
AcDbPolyline
90
20
70
1
43
0.0
10
-5.6562500000000036
20
59.675000001352139
10
-39.587499999999999
20
59.675000001352146
42
-0.41421356237309681
10
-40.337500000000006
20
60.425000001352146
10
-40.337500000000013
20
72.925000001352146
42
-0.41421356237309503
10
-39.587500000000006
20
73.67500000135216
10
-36.869250000000001
20
73.675000001352146
10
-36.869250000000015
20
74.925000001352146
42
-0.41421356237309503
10
-36.119250000000001
20
75.675000001352146
10
-30.619250000000001
20
75.675000001352146
42
-0.41421356237309331
10
-29.869250000000001
20
74.925000001352146
10
-29.869250000000008
20
73.675000001352146
10
-12.993249999999993
20
73.675000001352146
10
-12.99325000000001
20
74.925000001352146
42
-0.41421356237309503
10
-12.24325
20
75.675000001352146
10
-6.7432499999999926
20
75.675000001352146
42
-0.41421356237309204
10
-5.9932500000000015
20
74.925000001352146
10
-5.9932499999999997
20
73.675000001352146
10
-5.6562500000000036
20
73.675000001352146
42
-0.41421356237309631
10
-4.90625
20
72.925000001352146
10
-4.9062499999999893
20
60.425000001352146
42
-0.41421356237309631
0
LWPOLYLINE
5
148
100
AcDbEntity
8
0
100
AcDbPolyline
90
20
70
1
43
0.0
10
-28.575000000000049
20
37.350000001352164
10
-28.575000000000017
20
19.800000001352373
42
-0.41421356237310114
10
-29.325000000000045
20
19.05000000135237
10
-256.42500000000007
20
19.050000001352078
42
-0.41421356237311158
10
-257.17500000000001
20
19.800000001352043
10
-257.17500000000007
20
36.850000001352029
42
-0.41421356237302737
10
-256.42500000000007
20
37.600000001352001
10
-242.88750000000007
20
37.600000001352065
10
-242.88750000000007
20
56.400000001352062
42
-0.41421356237306733
10
-242.13750000000005
20
57.150000001352019
10
-233.36250000000007
20
57.150000001352055
10
-233.36250000000007
20
75.450000001352052
42
-0.4142135623730257
10
-232.61250000000007
20
76.200000001352038
10
-43.612500000000054
20
76.200000001352194
42
-0.41421356237310197
10
-42.862500000000068
20
75.450000001352194
10
-42.862500000000054
20
57.15000000135214
10
-34.087500000000063
20
57.150000001352161
42
-0.41421356237309853
10
-33.337500000000048
20
56.400000001352154
10
-33.337500000000034
20
38.100000001352178
10
-29.325000000000042
20
38.100000001352171
42
-0.41421356237310719
0
LWPOLYLINE
5
149
100
AcDbEntity
8
0
100
AcDbPolyline
90
4
70
1
43
0.0
10
-84.031701252149702
20
-3.7569078789332733
42
0.99999999999999989
10
-84.031701252149702
20
-2.2569078789332728
10
-106.73554213906804
20
-2.2569078789333097
42
0.99999999999999989
10
-106.73554213906804
20
-3.7569078789333088
0
LWPOLYLINE
5
150
100
AcDbEntity
8
0
100
AcDbPolyline
90
4
70
1
43
0.0
10
-14.355429342604783
20
-3.7569078789331609
42
0.99999999999999989
10
-14.355429342604783
20
-2.2569078789331618
10
-36.45120291197442
20
-2.2569078789331969
42
0.99999999999999989
10
-36.451202911974413
20
-3.7569078789331973
0
LWPOLYLINE
5
151
100
AcDbEntity
8
0
100
AcDbPolyline
90
4
70
1
43
0.0
10
-36.45120291197442
20
104.74309212106684
42
0.99999999999999989
10
-36.451202911974391
20
103.24309212106682
10
-14.355429342604783
20
103.24309212106684
42
0.99999999999999989
10
-14.355429342604818
20
104.74309212106687
0
LWPOLYLINE
5
152
100
AcDbEntity
8
0
100
AcDbPolyline
90
4
70
1
43
0.0
10
-106.73554213906804
20
104.74309212106668
42
0.99999999999999989
10
-106.735542139068
20
103.24309212106667
10
-84.031701252149702
20
103.24309212106672
42
0.99999999999999989
10
-84.031701252149702
20
104.74309212106672
0
LWPOLYLINE
5
153
100
AcDbEntity
8
0
100
AcDbPolyline
90
4
70
1
43
0.0
10
-67.449514285931045
20
96.356251613843412
42
0.99999999999999989
10
-67.449514285931045
20
97.856251613843398
10
-180.45047858932324
20
97.856251613843327
42
0.99999999999999989
10
-180.45047858932338
20
96.356251613843312
0
LWPOLYLINE
5
154
100
AcDbEntity
8
0
100
AcDbPolyline
90
4
70
1
43
0.0
10
-287.48554213906795
20
104.74309212106668
42
0.99999999999999989
10
-287.48554213906789
20
103.24309212106667
10
-264.78170125214956
20
103.24309212106672
42
0.99999999999999989
10
-264.78170125214973
20
104.74309212106668
0
LWPOLYLINE
5
155
100
AcDbEntity
8
0
100
AcDbPolyline
90
4
70
1
43
0.0
10
-366.45047858932338
20
97.856251613843199
10
-314.44951428593123
20
97.856251613843312
42
-0.99999999999999989
10
-314.44951428593123
20
96.356251613843256
10
-366.4504785893235
20
96.356251613843256
42
-0.99999999999999989
0
LWPOLYLINE
5
156
100
AcDbEntity
8
0
100
AcDbPolyline
90
4
70
1
43
0.0
10
-357.48554213906795
20
104.74309212106668
42
0.99999999999999989
10
-357.48554213906795
20
103.24309212106667
10
-334.78170125214967
20
103.24309212106672
42
0.99999999999999989
10
-334.78170125214967
20
104.74309212106672
0
LWPOLYLINE
5
157
100
AcDbEntity
8
0
100
AcDbPolyline
90
8
70
1
43
0.0
10
-287.13026707569884
20
6.270217286856572
10
-293.31842099949159
20
6.2702172868565391
42
-0.41421356237306817
10
-294.06842099949159
20
7.0202172868565338
10
-294.06842099949165
20
57.415256272457817
42
-0.41421356237304652
10
-293.31842099949159
20
58.165256272457796
10
-287.13026707569884
20
58.165256272457846
42
-0.41421356237301177
10
-286.38026707569895
20
57.415256272457817
10
-286.38026707569884
20
7.0202172868565471
42
-0.4142135623730846
0
LWPOLYLINE
5
158
100
AcDbEntity
8
0
100
AcDbPolyline
90
4
70
1
43
0.0
10
-264.78170125214956
20
-3.7569078789332733
42
0.99999999999999989
10
-264.78170125214956
20
-2.2569078789332728
10
-287.48554213906795
20
-2.2569078789333097
42
0.99999999999999989
10
-287.48554213906789
20
-3.7569078789333088
0
LWPOLYLINE
5
159
100
AcDbEntity
8
0
100
AcDbPolyline
90
4
70
1
43
0.0
10
-357.48554213906795
20
-2.2569078789333097
42
0.99999999999999989
10
-357.48554213906795
20
-3.7569078789333088
10
-334.78170125214967
20
-3.7569078789332733
42
0.99999999999999989
10
-334.78170125214967
20
-2.2569078789332728
0
LWPOLYLINE
5
160
100
AcDbEntity
8
0
100
AcDbPolyline
90
4
70
1
43
0.0
10
-227.26145016443178
20
-2.2569078789332018
42
0.99999999999999989
10
-227.26145016443178
20
-3.7569078789332022
10
-144.21355604415618
20
-3.7569078789332022
42
0.99999999999999989
10
-144.21355604415618
20
-2.2569078789332018
0
ENDSEC
0
SECTION
2
OBJECTS
0
DICTIONARY
5
C
100
AcDbDictionary
3
ACAD_GROUP
350
D
3
ACAD_MLINESTYLE
350
17
0
DICTIONARY
5
D
100
AcDbDictionary
0
DICTIONARY
5
1A
330
C
100
AcDbDictionary
0
DICTIONARY
5
17
100
AcDbDictionary
0
ENDSEC
0
EOF
