0
SECTION
2
HEADER
9
$INSUNITS
70
4
9
$ACADVER
1
AC1014
9
$HANDSEED
5
FFFF
0
ENDSEC
0
SECTION
2
TABLES
0
TABLE
2
VPORT
5
8
100
AcDbSymbolTable
0
ENDTAB
0
TABLE
2
LTYPE
5
5
100
AcDbSymbolTable
0
LTYPE
5
14
100
AcDbSymbolTableRecord
100
AcDbLinetypeTableRecord
2
BYBLOCK
70
0
0
LTYPE
5
15
100
AcDbSymbolTableRecord
100
AcDbLinetypeTableRecord
2
BYLAYER
70
0
0
ENDTAB
0
TABLE
2
LAYER
5
2
100
AcDbSymbolTable
70
2
0
LAYER
5
50
100
AcDbSymbolTableRecord
100
AcDbLayerTableRecord
2
0
70
0
6
CONTINUOUS
0
ENDTAB
0
TABLE
2
STYLE
5
3
100
AcDbSymbolTable
70
1
0
STYLE
5
11
100
AcDbSymbolTableRecord
100
AcDbTextStyleTableRecord
2
STANDARD
70
0
0
ENDTAB
0
TABLE
2
VIEW
5
6
100
AcDbSymbolTable
70
0
0
ENDTAB
0
TABLE
2
UCS
5
7
100
AcDbSymbolTable
70
0
0
ENDTAB
0
TABLE
2
APPID
5
9
100
AcDbSymbolTable
70
2
0
APPID
5
12
100
AcDbSymbolTableRecord
100
AcDbRegAppTableRecord
2
ACAD
70
0
0
ENDTAB
0
TABLE
2
DIMSTYLE
5
A
100
AcDbSymbolTable
70
1
0
ENDTAB
0
TABLE
2
BLOCK_RECORD
5
1
100
AcDbSymbolTable
70
1
0
BLOCK_RECORD
5
1F
100
AcDbSymbolTableRecord
100
AcDbBlockTableRecord
2
*MODEL_SPACE
0
BLOCK_RECORD
5
1B
100
AcDbSymbolTableRecord
100
AcDbBlockTableRecord
2
*PAPER_SPACE
0
ENDTAB
0
ENDSEC
0
SECTION
2
BLOCKS
0
BLOCK
5
20
100
AcDbEntity
100
AcDbBlockBegin
2
*MODEL_SPACE
0
ENDBLK
5
21
100
AcDbEntity
100
AcDbBlockEnd
0
BLOCK
5
1C
100
AcDbEntity
100
AcDbBlockBegin
2
*PAPER_SPACE
0
ENDBLK
5
1D
100
AcDbEntity
100
AcDbBlockEnd
0
ENDSEC
0
SECTION
2
ENTITIES
0
LWPOLYLINE
5
100
100
AcDbEntity
8
0
100
AcDbPolyline
90
36
70
1
43
0.0
10
-245.74905951249445
20
-2.3390950963837032
42
0.13008540826449652
10
-245.25440612172432
20
-2.4700047541294836
10
-126.22059675352959
20
-2.4700047541294849
42
0.13008540826453283
10
-125.72594336275944
20
-2.3390950963837223
42
-0.26464926792869969
10
-121.27406284582779
20
-2.339095096383689
42
0.13008540826461662
10
-120.7794094550576
20
-2.4700047541294863
10
-1.3290624283055763
20
-2.4700047541294889
42
0.19891236737966175
10
-0.23304691746641487
20
-2.0160202649686165
10
1.021015125890159
20
-0.76195822161199245
42
0.19891236737965248
10
1.4749996150509959
20
0.33405728922712541
10
1.4749996150510114
20
99.678433202513901
42
0.19891236737968085
10
1.0210151258901379
20
100.77444871335304
10
-0.2330469174665592
20
102.02851075670981
42
0.19891236737964019
10
-1.329062428305646
20
102.4824952458706
10
-48.575520878287755
20
102.4824952458706
42
0.10971564399865449
10
-48.893015982076946
20
102.41197803378344
10
-56.632745138608271
20
98.79551245795767
42
-0.10971564399864449
10
-56.950240242397442
20
98.724995245870502
10
-190.69975975760258
20
98.724995245870488
42
-0.10971564399857112
10
-191.01725486139176
20
98.795512457957685
10
-198.7569840179232
20
102.41197803378353
42
0.10971564399865702
10
-199.07447912171247
20
102.48249524587058
10
-245.25441374347506
20
102.4824952458706
42
0.13008482560407864
10
-245.74906514241172
20
102.35158672179821
42
-0.26464804173975931
10
-250.20092773284202
20
102.35158672179823
42
0.13008482560409057
10
-250.69557913177863
20
102.48249524587068
10
-370.14592275700124
20
102.4824952458706
42
0.19891236737969586
10
-371.2419382678404
20
102.02851075670981
10
-372.49601551083913
20
100.77443351371087
42
0.19891236737957935
10
-372.95000000000016
20
99.678418002871737
10
-372.95000000000016
20
0.33407250681401379
42
0.19891234309356146
10
-372.49601561325881
20
-0.76194290160553146
10
-371.24193858669526
20
-2.016020162549097
42
0.1989123916659041
10
-370.14592297343648
20
-2.4700047541294894
10
-250.69559342019616
20
-2.4700047541294885
42
0.13008540826459991
10
-250.20094002942599
20
-2.3390950963836827
42
-0.26464926792869886
0
LWPOLYLINE
5
101
100
AcDbEntity
8
0
100
AcDbPolyline
90
8
70
1
43
0.0
10
-117.575
20
2.5249999999999999
10
-130.07499999999999
20
2.5250000000000075
42
-0.41421356237309503
10
-130.82499999999999
20
3.2750000000000004
10
-130.82499999999999
20
15.775000000000002
42
-0.41421356237309503
10
-130.07499999999999
20
16.525000000000002
10
-117.575
20
16.524999999999995
42
-0.41421356237309503
10
-116.82500000000002
20
15.775000000000002
10
-116.82500000000002
20
3.2750000000000012
42
-0.41421356237309548
0
LWPOLYLINE
5
102
100
AcDbEntity
8
0
100
AcDbPolyline
90
8
70
1
43
0.0
10
-187.97499999999999
20
3.2750000000000004
10
-187.97499999999999
20
15.775000000000002
42
-0.41421356237309503
10
-187.22499999999999
20
16.525000000000002
10
-174.72499999999999
20
16.524999999999995
42
-0.41421356237309503
10
-173.97500000000002
20
15.775000000000002
10
-173.97500000000002
20
3.2750000000000012
42
-0.41421356237309548
10
-174.72499999999999
20
2.5249999999999999
10
-187.22499999999999
20
2.5250000000000075
42
-0.41421356237309503
0
LWPOLYLINE
5
103
100
AcDbEntity
8
0
100
AcDbPolyline
90
8
70
1
43
0.0
10
-155.67500000000001
20
2.5249999999999999
10
-168.17500000000001
20
2.5250000000000075
42
-0.41421356237309503
10
-168.92500000000001
20
3.2750000000000004
10
-168.92500000000001
20
15.775000000000002
42
-0.41421356237309503
10
-168.17500000000001
20
16.525000000000002
10
-155.67500000000001
20
16.524999999999995
42
-0.41421356237309503
10
-154.92500000000004
20
15.775000000000002
10
-154.92500000000004
20
3.2750000000000012
42
-0.41421356237309548
0
LWPOLYLINE
5
104
100
AcDbEntity
8
0
100
AcDbPolyline
90
8
70
1
43
0.0
10
-136.625
20
2.5249999999999999
10
-149.125
20
2.5250000000000075
42
-0.41421356237309503
10
-149.875
20
3.2750000000000004
10
-149.875
20
15.775000000000002
42
-0.41421356237309503
10
-149.125
20
16.525000000000002
10
-136.625
20
16.524999999999995
42
-0.41421356237309503
10
-135.87500000000003
20
15.775000000000002
10
-135.87500000000003
20
3.2750000000000012
42
-0.41421356237309548
0
LWPOLYLINE
5
105
100
AcDbEntity
8
0
100
AcDbPolyline
90
8
70
1
43
0.0
10
-231.875
20
2.5249999999999999
10
-244.375
20
2.5250000000000075
42
-0.41421356237309503
10
-245.125
20
3.2750000000000004
10
-245.125
20
15.775000000000002
42
-0.41421356237309503
10
-244.375
20
16.525000000000002
10
-231.875
20
16.524999999999995
42
-0.41421356237309503
10
-231.125
20
15.775000000000002
10
-231.125
20
3.2750000000000012
42
-0.41421356237309548
0
LWPOLYLINE
5
106
100
AcDbEntity
8
0
100
AcDbPolyline
90
8
70
1
43
0.0
10
-212.82499999999999
20
2.5249999999999999
10
-225.32499999999999
20
2.5250000000000075
42
-0.41421356237309503
10
-226.07499999999999
20
3.2750000000000004
10
-226.07499999999999
20
15.775000000000002
42
-0.41421356237309503
10
-225.32499999999999
20
16.525000000000002
10
-212.82499999999999
20
16.524999999999995
42
-0.41421356237309503
10
-212.07499999999999
20
15.775000000000002
10
-212.07499999999999
20
3.2750000000000012
42
-0.41421356237309548
0
LWPOLYLINE
5
107
100
AcDbEntity
8
0
100
AcDbPolyline
90
20
70
1
43
0.0
10
-250.92500000000001
20
2.5249999999999999
10
-282.47500000000002
20
2.5250000000000075
42
-0.41421356237309503
10
-283.22500000000002
20
3.2750000000000004
10
-283.22500000000002
20
15.775000000000002
42
-0.41421356237309503
10
-282.47500000000002
20
16.525000000000002
10
-282.13799999999998
20
16.524999999999999
10
-282.13799999999998
20
17.774999999999999
42
-0.41421356237309503
10
-281.38799999999998
20
18.524999999999999
10
-275.88799999999998
20
18.524999999999991
42
-0.41421356237309503
10
-275.13799999999998
20
17.774999999999999
10
-275.13799999999998
20
16.524999999999999
10
-258.262
20
16.525000000000002
10
-258.262
20
17.774999999999999
42
-0.41421356237309503
10
-257.512
20
18.524999999999999
10
-252.012
20
18.524999999999991
42
-0.41421356237309503
10
-251.262
20
17.774999999999999
10
-251.262
20
16.525000000000002
10
-250.92500000000001
20
16.524999999999995
42
-0.41421356237309503
10
-250.17500000000001
20
15.775000000000002
10
-250.17500000000001
20
3.2750000000000012
42
-0.41421356237309548
0
LWPOLYLINE
5
108
100
AcDbEntity
8
0
100
AcDbPolyline
90
8
70
1
43
0.0
10
-193.77500000000001
20
2.5249999999999999
10
-206.27500000000001
20
2.5250000000000075
42
-0.41421356237309503
10
-207.02500000000001
20
3.2750000000000004
10
-207.02500000000001
20
15.775000000000002
42
-0.41421356237309503
10
-206.27500000000001
20
16.525000000000002
10
-193.77500000000001
20
16.524999999999995
42
-0.41421356237309503
10
-193.02500000000003
20
15.775000000000002
10
-193.02500000000003
20
3.2750000000000012
42
-0.41421356237309548
0
LWPOLYLINE
5
109
100
AcDbEntity
8
0
100
AcDbPolyline
90
8
70
1
43
0.0
10
-69.950000000000017
20
21.574999999999996
10
-82.450000000000017
20
21.575000000000006
42
-0.41421356237309503
10
-83.200000000000003
20
22.324999999999999
10
-83.200000000000003
20
34.825000000000003
42
-0.41421356237309503
10
-82.450000000000017
20
35.575000000000003
10
-69.950000000000017
20
35.575000000000003
42
-0.41421356237309503
10
-69.200000000000003
20
34.825000000000003
10
-69.200000000000003
20
22.324999999999999
42
-0.41421356237309503
0
LWPOLYLINE
5
110
100
AcDbEntity
8
0
100
AcDbPolyline
90
8
70
1
43
0.0
10
-50.899999999999999
20
21.574999999999996
10
-63.399999999999999
20
21.574999999999996
42
-0.41421356237309503
10
-64.150000000000006
20
22.324999999999999
10
-64.150000000000006
20
34.825000000000003
42
-0.41421356237309503
10
-63.399999999999999
20
35.575000000000003
10
-50.899999999999999
20
35.575000000000003
42
-0.41421356237309503
10
-50.149999999999999
20
34.825000000000003
10
-50.149999999999999
20
22.324999999999999
42
-0.41421356237309503
0
LWPOLYLINE
5
111
100
AcDbEntity
8
0
100
AcDbPolyline
90
8
70
1
43
0.0
10
-89
20
21.574999999999996
10
-101.5
20
21.575000000000006
42
-0.41421356237309503
10
-102.25
20
22.324999999999999
10
-102.25000000000001
20
34.825000000000003
42
-0.41421356237309503
10
-101.5
20
35.575000000000003
10
-89
20
35.574999999999996
42
-0.41421356237309503
10
-88.250000000000014
20
34.825000000000003
10
-88.25
20
22.324999999999999
42
-0.41421356237309503
0
LWPOLYLINE
5
112
100
AcDbEntity
8
0
100
AcDbPolyline
90
8
70
1
43
0.0
10
-31.849999999999987
20
21.574999999999996
10
-44.349999999999987
20
21.574999999999996
42
-0.41421356237310197
10
-45.100000000000009
20
22.324999999999999
10
-45.100000000000009
20
34.825000000000003
42
-0.41421356237309503
10
-44.350000000000009
20
35.575000000000003
10
-31.849999999999987
20
35.575000000000003
42
-0.41421356237308815
10
-31.100000000000001
20
34.825000000000003
10
-31.100000000000001
20
22.324999999999999
42
-0.41421356237308815
0
LWPOLYLINE
5
113
100
AcDbEntity
8
0
100
AcDbPolyline
90
8
70
1
43
0.0
10
-8.0375000000000085
20
21.574999999999996
10
-20.537500000000009
20
21.574999999999996
42
-0.41421356237309331
10
-21.287500000000005
20
22.324999999999999
10
-21.287500000000005
20
34.825000000000003
42
-0.41421356237309503
10
-20.537500000000005
20
35.575000000000003
10
-8.0375000000000085
20
35.575000000000003
42
-0.41421356237309853
10
-7.2874999999999996
20
34.825000000000003
10
-7.2874999999999979
20
22.324999999999999
42
-0.41421356237309853
0
LWPOLYLINE
5
114
100
AcDbEntity
8
0
100
AcDbPolyline
90
8
70
1
43
0.0
10
-336.64999999999998
20
2.5249999999999999
10
-349.14999999999998
20
2.5249999999999719
42
-0.41421356237309503
10
-349.90000000000003
20
3.2750000000000004
10
-349.90000000000003
20
15.775000000000002
42
-0.41421356237309503
10
-349.14999999999998
20
16.525000000000002
10
-336.64999999999998
20
16.525000000000031
42
-0.41421356237309503
10
-335.89999999999998
20
15.775000000000002
10
-335.89999999999998
20
3.2750000000000012
42
-0.41421356237309548
0
LWPOLYLINE
5
115
100
AcDbEntity
8
0
100
AcDbPolyline
90
8
70
1
43
0.0
10
-317.60000000000002
20
2.5249999999999999
10
-330.10000000000002
20
2.5249999999999719
42
-0.41421356237309503
10
-330.85000000000008
20
3.2750000000000004
10
-330.85000000000008
20
15.775000000000002
42
-0.41421356237309503
10
-330.10000000000002
20
16.525000000000002
10
-317.60000000000002
20
16.524999999999995
42
-0.41421356237309503
10
-316.85000000000008
20
15.775000000000002
10
-316.85000000000008
20
3.2750000000000012
42
-0.41421356237309548
0
LWPOLYLINE
5
116
100
AcDbEntity
8
0
100
AcDbPolyline
90
8
70
1
43
0.0
10
-355.69999999999999
20
2.5249999999999999
10
-368.19999999999999
20
2.5249999999999719
42
-0.41421356237309503
10
-368.95000000000005
20
3.2750000000000004
10
-368.95000000000005
20
15.775000000000002
42
-0.41421356237309503
10
-368.19999999999999
20
16.525000000000002
10
-355.69999999999999
20
16.525000000000031
42
-0.41421356237309503
10
-354.94999999999999
20
15.775000000000002
10
-354.94999999999999
20
3.2750000000000012
42
-0.41421356237309548
0
LWPOLYLINE
5
117
100
AcDbEntity
8
0
100
AcDbPolyline
90
8
70
1
43
0.0
10
-298.55000000000007
20
2.5249999999999999
10
-311.05000000000007
20
2.5250000000000075
42
-0.41421356237309503
10
-311.80000000000001
20
3.2750000000000004
10
-311.80000000000001
20
15.775000000000002
42
-0.41421356237309503
10
-311.05000000000007
20
16.525000000000002
10
-298.55000000000007
20
16.524999999999995
42
-0.41421356237309503
10
-297.80000000000007
20
15.775000000000002
10
-297.80000000000007
20
3.2750000000000012
42
-0.41421356237309548
0
LWPOLYLINE
5
118
100
AcDbEntity
8
0
100
AcDbPolyline
90
8
70
1
43
0.0
10
-3.2750000000000004
20
2.5249999999999999
42
0.41421356237309503
10
-2.5249999999999999
20
3.2750000000000012
10
-2.5249999999999999
20
15.775000000000002
42
0.41421356237309725
10
-3.2750000000000057
20
16.525000000000002
10
-15.775000000000002
20
16.525000000000002
42
0.41421356237309503
10
-16.524999999999999
20
15.775000000000002
10
-16.525000000000002
20
3.2750000000000004
42
0.41421356237309331
10
-15.775000000000006
20
2.5249999999999999
0
LWPOLYLINE
5
119
100
AcDbEntity
8
0
100
AcDbPolyline
90
8
70
1
43
0.0
10
-22.324999999999982
20
2.5249999999999999
10
-34.825000000000017
20
2.5249999999999986
42
-0.41421356237308982
10
-35.575000000000003
20
3.2750000000000004
10
-35.575000000000003
20
15.775000000000002
42
-0.41421356237309503
10
-34.825000000000003
20
16.525000000000002
10
-22.324999999999982
20
16.525000000000002
42
-0.41421356237308815
10
-21.574999999999996
20
15.775000000000002
10
-21.574999999999996
20
3.2750000000000012
42
-0.41421356237308854
0
LWPOLYLINE
5
120
100
AcDbEntity
8
0
100
AcDbPolyline
90
8
70
1
43
0.0
10
-54.625000000000021
20
3.2750000000000004
10
-54.625
20
15.775000000000002
42
-0.41421356237309503
10
-53.875
20
16.525000000000002
10
-41.374999999999993
20
16.525000000000002
42
-0.41421356237309159
10
-40.625
20
15.775000000000002
10
-40.625
20
3.2750000000000012
42
-0.41421356237309548
10
-41.375
20
2.5249999999999999
10
-53.874999999999993
20
2.5249999999999808
42
-0.41421356237309853
0
LWPOLYLINE
5
121
100
AcDbEntity
8
0
100
AcDbPolyline
90
8
70
1
43
0.0
10
-60.425000000000004
20
2.5249999999999999
10
-72.925000000000011
20
2.5249999999999986
42
-0.41421356237309503
10
-73.675000000000011
20
3.2750000000000004
10
-73.675000000000011
20
15.775000000000002
42
-0.41421356237309503
10
-72.925000000000011
20
16.525000000000002
10
-60.425000000000004
20
16.525000000000002
42
-0.41421356237309503
10
-59.675000000000004
20
15.775000000000002
10
-59.675000000000004
20
3.2750000000000012
42
-0.41421356237309548
0
LWPOLYLINE
5
122
100
AcDbEntity
8
0
100
AcDbPolyline
90
8
70
1
43
0.0
10
-79.475000000000023
20
2.5249999999999999
10
-91.974999999999994
20
2.5250000000000075
42
-0.41421356237309503
10
-92.724999999999994
20
3.2750000000000004
10
-92.724999999999994
20
15.775000000000002
42
-0.41421356237309503
10
-91.974999999999994
20
16.525000000000002
10
-79.475000000000023
20
16.525000000000002
42
-0.41421356237310197
10
-78.724999999999994
20
15.775000000000002
10
-78.724999999999994
20
3.2750000000000012
42
-0.41421356237310242
0
LWPOLYLINE
5
123
100
AcDbEntity
8
0
100
AcDbPolyline
90
8
70
1
43
0.0
10
-98.525000000000006
20
2.5249999999999999
10
-111.02500000000001
20
2.5250000000000075
42
-0.41421356237309503
10
-111.77500000000001
20
3.2750000000000004
10
-111.77500000000001
20
15.775000000000002
42
-0.41421356237309503
10
-111.02500000000001
20
16.525000000000002
10
-98.525000000000006
20
16.524999999999995
42
-0.41421356237309503
10
-97.77500000000002
20
15.775000000000002
10
-97.77500000000002
20
3.2750000000000012
42
-0.41421356237309548
0
LWPOLYLINE
5
124
100
AcDbEntity
8
0
100
AcDbPolyline
90
8
70
1
43
0.0
10
-317.60000000000002
20
59.675000000000004
42
0.41421356237309503
10
-316.85000000000008
20
60.425000000000004
10
-316.85000000000008
20
72.925000000000011
42
0.41421356237309503
10
-317.60000000000002
20
73.675000000000011
10
-330.10000000000002
20
73.675000000000011
42
0.41421356237309503
10
-330.85000000000008
20
72.925000000000011
10
-330.85000000000008
20
60.425000000000004
42
0.41421356237309503
10
-330.10000000000002
20
59.675000000000004
0
LWPOLYLINE
5
125
100
AcDbEntity
8
0
100
AcDbPolyline
90
8
70
1
43
0.0
10
-298.55000000000007
20
59.675000000000004
10
-311.05000000000007
20
59.675000000000011
42
-0.41421356237309503
10
-311.80000000000001
20
60.425000000000004
10
-311.80000000000001
20
72.925000000000011
42
-0.41421356237309503
10
-311.05000000000007
20
73.675000000000011
10
-298.55000000000007
20
73.674999999999997
42
-0.41421356237309503
10
-297.80000000000007
20
72.925000000000011
10
-297.80000000000007
20
60.425000000000004
42
-0.41421356237309503
0
LWPOLYLINE
5
126
100
AcDbEntity
8
0
100
AcDbPolyline
90
8
70
1
43
0.0
10
-336.64999999999998
20
59.675000000000004
42
0.41421356237309503
10
-335.89999999999998
20
60.425000000000004
10
-335.89999999999998
20
72.925000000000011
42
0.41421356237309503
10
-336.64999999999998
20
73.67500000000004
10
-349.14999999999998
20
73.675000000000011
42
0.41421356237309503
10
-349.90000000000003
20
72.925000000000011
10
-349.90000000000003
20
60.425000000000004
42
0.41421356237309503
10
-349.14999999999998
20
59.675000000000004
0
LWPOLYLINE
5
127
100
AcDbEntity
8
0
100
AcDbPolyline
90
8
70
1
43
0.0
10
-257.03125
20
60.425000000000004
10
-257.03125
20
72.925000000000011
42
-0.41421356237309503
10
-256.28125
20
73.675000000000011
10
-243.78125
20
73.674999999999997
42
-0.41421356237309503
10
-243.03125
20
72.925000000000011
10
-243.03125
20
60.425000000000004
42
-0.41421356237309503
10
-243.78125
20
59.675000000000004
10
-256.28125
20
59.675000000000011
42
-0.41421356237309503
0
LWPOLYLINE
5
128
100
AcDbEntity
8
0
100
AcDbPolyline
90
8
70
1
43
0.0
10
-20.537500000000009
20
92.725000000000009
10
-5.6562500000000071
20
92.724999999999994
42
-0.41421356237309764
10
-4.90625
20
91.974999999999994
10
-4.9062499999999982
20
79.475000000000009
42
-0.41421356237309853
10
-5.65625
20
78.724999999999994
10
-20.537500000000009
20
78.724999999999994
42
-0.41421356237309331
10
-21.287500000000005
20
79.474999999999994
10
-21.287500000000016
20
91.975000000000023
42
-0.41421356237308637
0
LWPOLYLINE
5
129
100
AcDbEntity
8
0
100
AcDbPolyline
90
8
70
1
43
0.0
10
-287.98750000000001
20
65.1875
10
-287.98750000000001
20
77.6875
42
-0.41421356237309853
10
-287.23750000000001
20
78.437500000000014
10
-274.73750000000001
20
78.4375
42
-0.41421356237309503
10
-273.98750000000001
20
77.6875
10
-273.98750000000001
20
65.1875
42
-0.41421356237309503
10
-274.73750000000001
20
64.4375
10
-287.23750000000001
20
64.437500000000014
42
-0.41421356237309503
0
LWPOLYLINE
5
130
100
AcDbEntity
8
0
100
AcDbPolyline
90
11
70
1
43
0.0
10
-27.087499999999984
20
78.724999999999994
10
-63.17499999999999
20
78.724999999999994
10
-63.174999999999997
20
78.474999999999994
42
-0.41421356237309159
10
-63.924999999999997
20
77.724999999999994
10
-69.424999999999983
20
77.724999999999994
42
-0.41421356237309853
10
-70.174999999999997
20
78.474999999999994
10
-70.175000000000011
20
91.975000000000023
42
-0.41421356237308815
10
-69.424999999999997
20
92.725000000000009
10
-27.087499999999984
20
92.725000000000009
42
-0.41421356237308815
10
-26.337499999999999
20
91.974999999999994
10
-26.337499999999999
20
79.475000000000009
42
-0.41421356237309159
0
LWPOLYLINE
5
131
100
AcDbEntity
8
0
100
AcDbPolyline
90
14
70
1
43
0.0
10
-112.31925000000001
20
92.725000000000009
10
-73.450000000000017
20
92.724999999999966
42
-0.41421356237310197
10
-72.700000000000003
20
91.97499999999998
10
-72.700000000000003
20
78.474999999999994
42
-0.41421356237309503
10
-73.450000000000003
20
77.724999999999994
10
-88.443250000000006
20
77.724999999999994
42
-0.41421356237309503
10
-89.193250000000006
20
78.474999999999994
10
-89.193250000000006
20
78.724999999999994
10
-101.30674999999999
20
78.724999999999994
10
-101.30674999999999
20
78.474999999999994
42
-0.41421356237309503
10
-102.05674999999999
20
77.724999999999994
10
-112.31925000000001
20
77.724999999999994
42
-0.41421356237309503
10
-113.06925
20
78.474999999999994
10
-113.06925000000004
20
91.97499999999998
42
-0.41421356237309503
0
LWPOLYLINE
5
132
100
AcDbEntity
8
0
100
AcDbPolyline
90
8
70
1
43
0.0
10
-117.575
20
78.724999999999994
10
-141.98124999999999
20
78.725000000000009
42
-0.41421356237309503
10
-142.73124999999999
20
79.474999999999994
10
-142.73124999999999
20
91.975000000000023
42
-0.41421356237308815
10
-141.98124999999999
20
92.724999999999994
10
-117.575
20
92.724999999999994
42
-0.41421356237309503
10
-116.82500000000002
20
91.974999999999994
10
-116.82500000000002
20
79.475000000000009
42
-0.41421356237309853
0
LWPOLYLINE
5
133
100
AcDbEntity
8
0
100
AcDbPolyline
90
14
70
1
43
0.0
10
-149.61824999999999
20
77.724999999999994
10
-159.88075000000003
20
77.724999999999994
42
-0.41421356237309503
10
-160.63075000000001
20
78.474999999999994
10
-160.63075000000001
20
78.724999999999994
10
-167.94999999999999
20
78.724999999999994
10
-167.95000000000002
20
78.474999999999994
42
-0.41421356237309503
10
-168.70000000000002
20
77.724999999999994
10
-183.71875
20
77.724999999999966
42
-0.41421356237309503
10
-184.46875000000003
20
78.474999999999994
10
-184.46875000000003
20
91.97499999999998
42
-0.41421356237309503
10
-183.71875
20
92.725000000000009
10
-149.61824999999999
20
92.724999999999966
42
-0.41421356237309503
10
-148.86824999999999
20
91.97499999999998
10
-148.86824999999999
20
78.474999999999994
42
-0.41421356237309503
0
LWPOLYLINE
5
134
100
AcDbEntity
8
0
100
AcDbPolyline
90
8
70
1
43
0.0
10
-186.63125000000002
20
78.724999999999994
10
-220.56250000000003
20
78.725000000000009
42
-0.41421356237309503
10
-221.3125
20
79.474999999999994
10
-221.3125
20
91.975000000000023
42
-0.41421356237308815
10
-220.56250000000003
20
92.724999999999994
10
-186.63125000000002
20
92.724999999999994
42
-0.41421356237309503
10
-185.88125000000002
20
91.974999999999994
10
-185.88125000000002
20
79.475000000000009
42
-0.41421356237309853
0
LWPOLYLINE
5
135
100
AcDbEntity
8
0
100
AcDbPolyline
90
8
70
1
43
0.0
10
-274.73750000000001
20
83.487500000000026
10
-287.23750000000001
20
83.487500000000011
42
-0.41421356237309503
10
-287.98750000000001
20
84.237499999999997
10
-287.98750000000001
20
96.737500000000011
42
-0.41421356237308815
10
-287.23750000000001
20
97.487499999999997
10
-274.73750000000001
20
97.487499999999997
42
-0.41421356237309503
10
-273.98750000000001
20
96.737499999999997
10
-273.98750000000007
20
84.237500000000011
42
-0.41421356237310197
0
LWPOLYLINE
5
136
100
AcDbEntity
8
0
100
AcDbPolyline
90
8
70
1
43
0.0
10
-293.78750000000002
20
83.487500000000011
42
0.41421356237309503
10
-293.03750000000002
20
84.237499999999997
10
-293.03750000000002
20
96.737499999999997
42
0.41421356237309503
10
-293.78750000000002
20
97.487500000000011
10
-306.28750000000002
20
97.487499999999997
42
0.41421356237308815
10
-307.03750000000002
20
96.737500000000011
10
-307.03750000000002
20
84.237499999999997
42
0.41421356237309503
10
-306.28750000000002
20
83.487500000000026
0
LWPOLYLINE
5
137
100
AcDbEntity
8
0
100
AcDbPolyline
90
8
70
1
43
0.0
10
-255.6875
20
83.487500000000026
10
-268.1875
20
83.487500000000011
42
-0.41421356237309503
10
-268.9375
20
84.237499999999997
10
-268.9375
20
96.737500000000011
42
-0.41421356237308815
10
-268.1875
20
97.487499999999997
10
-255.6875
20
97.487499999999997
42
-0.41421356237309503
10
-254.93750000000003
20
96.737499999999997
10
-254.93750000000006
20
84.237500000000011
42
-0.41421356237310197
0
LWPOLYLINE
5
138
100
AcDbEntity
8
0
100
AcDbPolyline
90
20
70
1
43
0.0
10
-368.95000000000005
20
60.425000000000004
10
-368.94999999999993
20
91.975000000000023
42
-0.41421356237308815
10
-368.19999999999999
20
92.724999999999994
10
-355.69999999999999
20
92.725000000000023
42
-0.41421356237309503
10
-354.94999999999999
20
91.974999999999994
10
-354.94999999999999
20
91.638000000000019
10
-353.69999999999999
20
91.638000000000019
42
-0.41421356237309503
10
-352.94999999999993
20
90.887999999999991
10
-352.95000000000005
20
85.388000000000019
42
-0.41421356237310197
10
-353.69999999999999
20
84.638000000000005
10
-354.94999999999999
20
84.637999999999991
10
-354.94999999999999
20
67.762
10
-353.69999999999999
20
67.762000000000029
42
-0.41421356237309503
10
-352.94999999999993
20
67.012
10
-352.94999999999993
20
61.512
42
-0.41421356237309503
10
-353.69999999999999
20
60.762
10
-354.94999999999999
20
60.762
10
-354.94999999999999
20
60.425000000000004
42
-0.41421356237309503
10
-355.69999999999999
20
59.675000000000004
10
-368.19999999999999
20
59.674999999999976
42
-0.41421356237309503
0
LWPOLYLINE
5
139
100
AcDbEntity
8
0
100
AcDbPolyline
90
8
70
1
43
0.0
10
-317.60000000000002
20
78.724999999999994
10
-330.10000000000002
20
78.724999999999966
42
-0.41421356237309503
10
-330.85000000000008
20
79.474999999999994
10
-330.85000000000008
20
91.975000000000023
42
-0.41421356237308815
10
-330.10000000000002
20
92.724999999999994
10
-317.60000000000002
20
92.724999999999994
42
-0.41421356237309503
10
-316.85000000000008
20
91.974999999999994
10
-316.85000000000008
20
79.475000000000009
42
-0.41421356237309853
0
LWPOLYLINE
5
140
100
AcDbEntity
8
0
100
AcDbPolyline
90
8
70
1
43
0.0
10
-336.64999999999998
20
78.724999999999994
10
-349.14999999999998
20
78.724999999999966
42
-0.41421356237309503
10
-349.90000000000003
20
79.474999999999994
10
-349.89999999999998
20
91.975000000000023
42
-0.41421356237308815
10
-349.14999999999998
20
92.724999999999994
10
-336.64999999999998
20
92.725000000000023
42
-0.41421356237309503
10
-335.89999999999998
20
91.974999999999994
10
-335.89999999999998
20
79.475000000000009
42
-0.41421356237309853
0
LWPOLYLINE
5
141
100
AcDbEntity
8
0
100
AcDbPolyline
90
8
70
1
43
0.0
10
-227.11250000000004
20
78.724999999999994
10
-241.99375000000003
20
78.725000000000009
42
-0.41421356237309503
10
-242.74375000000003
20
79.474999999999994
10
-242.74375000000003
20
91.975000000000023
42
-0.41421356237308815
10
-241.99375000000003
20
92.724999999999994
10
-227.11250000000004
20
92.724999999999994
42
-0.41421356237309503
10
-226.36250000000004
20
91.974999999999994
10
-226.36250000000004
20
79.475000000000009
42
-0.41421356237309853
0
LWPOLYLINE
5
142
100
AcDbEntity
8
0
100
AcDbPolyline
90
8
70
1
43
0.0
10
-146.15000000000003
20
21.574999999999996
10
-158.65000000000003
20
21.575000000000006
42
-0.41421356237309503
10
-159.40000000000001
20
22.324999999999999
10
-159.40000000000001
20
34.825000000000003
42
-0.41421356237309503
10
-158.65000000000003
20
35.575000000000003
10
-146.15000000000003
20
35.574999999999996
42
-0.41421356237309503
10
-145.40000000000003
20
34.825000000000003
10
-145.40000000000003
20
22.324999999999999
42
-0.41421356237309503
0
LWPOLYLINE
5
143
100
AcDbEntity
8
0
100
AcDbPolyline
90
8
70
1
43
0.0
10
-165.19999999999999
20
21.574999999999996
10
-177.69999999999999
20
21.575000000000006
42
-0.41421356237309503
10
-178.44999999999999
20
22.324999999999999
10
-178.44999999999999
20
34.825000000000003
42
-0.41421356237309503
10
-177.69999999999999
20
35.575000000000003
10
-165.19999999999999
20
35.574999999999996
42
-0.41421356237309503
10
-164.44999999999999
20
34.825000000000003
10
-164.44999999999999
20
22.324999999999999
42
-0.41421356237309503
0
LWPOLYLINE
5
144
100
AcDbEntity
8
0
100
AcDbPolyline
90
8
70
1
43
0.0
10
-121.29999999999998
20
22.324999999999999
10
-121.29999999999998
20
34.825000000000003
42
-0.41421356237309503
10
-120.55
20
35.575000000000003
10
-108.05
20
35.574999999999996
42
-0.41421356237309503
10
-107.30000000000001
20
34.825000000000003
10
-107.30000000000001
20
22.324999999999999
42
-0.41421356237309503
10
-108.05
20
21.574999999999996
10
-120.55
20
21.575000000000006
42
-0.41421356237309503
0
LWPOLYLINE
5
145
100
AcDbEntity
8
0
100
AcDbPolyline
90
8
70
1
43
0.0
10
-140.34999999999999
20
22.324999999999999
10
-140.34999999999999
20
34.825000000000003
42
-0.41421356237309503
10
-139.60000000000002
20
35.575000000000003
10
-127.10000000000001
20
35.574999999999996
42
-0.41421356237309503
10
-126.35000000000002
20
34.825000000000003
10
-126.35000000000002
20
22.324999999999999
42
-0.41421356237309503
10
-127.10000000000001
20
21.574999999999996
10
-139.60000000000002
20
21.575000000000006
42
-0.41421356237309503
0
LWPOLYLINE
5
146
100
AcDbEntity
8
0
100
AcDbPolyline
90
8
70
1
43
0.0
10
-184.25
20
21.574999999999996
10
-196.75
20
21.575000000000006
42
-0.41421356237309503
10
-197.5
20
22.324999999999999
10
-197.5
20
34.825000000000003
42
-0.41421356237309503
10
-196.75
20
35.575000000000003
10
-184.25
20
35.574999999999996
42
-0.41421356237309503
10
-183.5
20
34.825000000000003
10
-183.5
20
22.324999999999999
42
-0.41421356237309503
0
LWPOLYLINE
5
147
100
AcDbEntity
8
0
100
AcDbPolyline
90
8
70
1
43
0.0
10
-203.30000000000001
20
21.574999999999996
10
-215.80000000000001
20
21.575000000000006
42
-0.41421356237309503
10
-216.55000000000001
20
22.324999999999999
10
-216.55000000000001
20
34.825000000000003
42
-0.41421356237309503
10
-215.80000000000001
20
35.575000000000003
10
-203.30000000000001
20
35.574999999999996
42
-0.41421356237309503
10
-202.55000000000001
20
34.825000000000003
10
-202.55000000000001
20
22.324999999999999
42
-0.41421356237309503
0
LWPOLYLINE
5
148
100
AcDbEntity
8
0
100
AcDbPolyline
90
8
70
1
43
0.0
10
-222.34999999999999
20
21.574999999999996
10
-234.84999999999999
20
21.575000000000006
42
-0.41421356237309503
10
-235.59999999999999
20
22.324999999999999
10
-235.59999999999999
20
34.825000000000003
42
-0.41421356237309503
10
-234.84999999999999
20
35.575000000000003
10
-222.34999999999999
20
35.574999999999996
42
-0.41421356237309503
10
-221.59999999999999
20
34.825000000000003
10
-221.59999999999999
20
22.324999999999999
42
-0.41421356237309503
0
LWPOLYLINE
5
149
100
AcDbEntity
8
0
100
AcDbPolyline
90
8
70
1
43
0.0
10
-241.40000000000001
20
21.574999999999996
10
-253.90000000000001
20
21.575000000000006
42
-0.41421356237309503
10
-254.65000000000001
20
22.324999999999999
10
-254.65000000000001
20
34.825000000000003
42
-0.41421356237309503
10
-253.90000000000001
20
35.575000000000003
10
-241.40000000000001
20
35.574999999999996
42
-0.41421356237309503
10
-240.65000000000001
20
34.825000000000003
10
-240.65000000000001
20
22.324999999999999
42
-0.41421356237309503
0
LWPOLYLINE
5
150
100
AcDbEntity
8
0
100
AcDbPolyline
90
8
70
1
43
0.0
10
-298.55000000000007
20
21.574999999999996
10
-311.05000000000007
20
21.575000000000006
42
-0.41421356237309503
10
-311.80000000000001
20
22.324999999999999
10
-311.80000000000001
20
34.825000000000003
42
-0.41421356237309503
10
-311.05000000000007
20
35.575000000000003
10
-298.55000000000007
20
35.574999999999996
42
-0.41421356237309503
10
-297.80000000000007
20
34.825000000000003
10
-297.80000000000007
20
22.324999999999999
42
-0.41421356237309503
0
LWPOLYLINE
5
151
100
AcDbEntity
8
0
100
AcDbPolyline
90
8
70
1
43
0.0
10
-317.60000000000002
20
21.574999999999996
10
-330.10000000000002
20
21.574999999999971
42
-0.41421356237309503
10
-330.85000000000008
20
22.324999999999999
10
-330.85000000000008
20
34.825000000000003
42
-0.41421356237309503
10
-330.10000000000002
20
35.575000000000003
10
-317.60000000000002
20
35.574999999999996
42
-0.41421356237309503
10
-316.85000000000008
20
34.825000000000003
10
-316.85000000000008
20
22.324999999999999
42
-0.41421356237309503
0
LWPOLYLINE
5
152
100
AcDbEntity
8
0
100
AcDbPolyline
90
8
70
1
43
0.0
10
-336.64999999999998
20
21.574999999999996
10
-349.14999999999998
20
21.574999999999971
42
-0.41421356237309503
10
-349.90000000000003
20
22.324999999999999
10
-349.90000000000003
20
34.825000000000003
42
-0.41421356237309503
10
-349.14999999999998
20
35.575000000000003
10
-336.64999999999998
20
35.575000000000031
42
-0.41421356237309503
10
-335.89999999999998
20
34.825000000000003
10
-335.89999999999998
20
22.324999999999999
42
-0.41421356237309503
0
LWPOLYLINE
5
153
100
AcDbEntity
8
0
100
AcDbPolyline
90
8
70
1
43
0.0
10
-55.662500000000001
20
40.625
10
-68.162499999999994
20
40.625
42
-0.41421356237309503
10
-68.912500000000009
20
41.375
10
-68.912500000000009
20
53.875
42
-0.41421356237309503
10
-68.162499999999994
20
54.625
10
-55.662500000000001
20
54.625
42
-0.41421356237309503
10
-54.912500000000001
20
53.875
10
-54.912500000000001
20
41.375
42
-0.41421356237309503
0
LWPOLYLINE
5
154
100
AcDbEntity
8
0
100
AcDbPolyline
90
8
70
1
43
0.0
10
-36.61249999999999
20
40.625
10
-49.11249999999999
20
40.625
42
-0.41421356237309853
10
-49.862499999999997
20
41.375
10
-49.862499999999997
20
53.875
42
-0.41421356237309503
10
-49.112499999999997
20
54.625
10
-36.61249999999999
20
54.625
42
-0.41421356237309159
10
-35.862499999999997
20
53.875
10
-35.862499999999997
20
41.375
42
-0.41421356237309159
0
LWPOLYLINE
5
155
100
AcDbEntity
8
0
100
AcDbPolyline
90
8
70
1
43
0.0
10
-74.712500000000006
20
40.625
10
-87.212500000000006
20
40.625000000000007
42
-0.41421356237309503
10
-87.962500000000006
20
41.375
10
-87.962500000000006
20
53.875
42
-0.41421356237309503
10
-87.212500000000006
20
54.625
10
-74.712500000000006
20
54.625
42
-0.41421356237309503
10
-73.962500000000006
20
53.875
10
-73.962500000000006
20
41.375
42
-0.41421356237309503
0
LWPOLYLINE
5
156
100
AcDbEntity
8
0
100
AcDbPolyline
90
8
70
1
43
0.0
10
-22.91875000000001
20
54.625
10
-5.6562500000000071
20
54.625
42
-0.41421356237309764
10
-4.90625
20
53.875
10
-4.9062499999999982
20
41.375
42
-0.41421356237309503
10
-5.65625
20
40.625
10
-22.91875000000001
20
40.625
42
-0.41421356237309159
10
-23.668750000000003
20
41.375
10
-23.668750000000003
20
53.875
42
-0.41421356237309159
0
LWPOLYLINE
5
157
100
AcDbEntity
8
0
100
AcDbPolyline
90
8
70
1
43
0.0
10
-208.06250000000003
20
40.625
10
-220.56250000000003
20
40.625000000000007
42
-0.41421356237309503
10
-221.3125
20
41.375
10
-221.3125
20
53.875
42
-0.41421356237309503
10
-220.56250000000003
20
54.625
10
-208.06250000000003
20
54.624999999999993
42
-0.41421356237309503
10
-207.31250000000003
20
53.875
10
-207.31250000000003
20
41.375
42
-0.41421356237309503
0
LWPOLYLINE
5
158
100
AcDbEntity
8
0
100
AcDbPolyline
90
8
70
1
43
0.0
10
-189.01250000000002
20
40.625
10
-201.51250000000002
20
40.625000000000007
42
-0.41421356237309503
10
-202.26249999999999
20
41.375
10
-202.26249999999999
20
53.875
42
-0.41421356237309503
10
-201.51250000000002
20
54.625
10
-189.01250000000002
20
54.624999999999993
42
-0.41421356237309503
10
-188.26250000000002
20
53.875
10
-188.26250000000002
20
41.375
42
-0.41421356237309503
0
LWPOLYLINE
5
159
100
AcDbEntity
8
0
100
AcDbPolyline
90
8
70
1
43
0.0
10
-227.11250000000004
20
40.625
10
-239.61250000000004
20
40.625000000000007
42
-0.41421356237309503
10
-240.36250000000001
20
41.375
10
-240.36250000000001
20
53.875
42
-0.41421356237309503
10
-239.61250000000004
20
54.625
10
-227.11250000000004
20
54.624999999999993
42
-0.41421356237309503
10
-226.36250000000004
20
53.875
10
-226.36250000000004
20
41.375
42
-0.41421356237309503
0
LWPOLYLINE
5
160
100
AcDbEntity
8
0
100
AcDbPolyline
90
8
70
1
43
0.0
10
-169.96250000000001
20
40.625
10
-182.46250000000001
20
40.625000000000007
42
-0.41421356237309503
10
-183.21249999999998
20
41.375
10
-183.21249999999998
20
53.875
42
-0.41421356237309503
10
-182.46250000000001
20
54.625
10
-169.96250000000001
20
54.624999999999993
42
-0.41421356237309503
10
-169.21250000000001
20
53.875
10
-169.21250000000001
20
41.375
42
-0.41421356237309503
0
LWPOLYLINE
5
161
100
AcDbEntity
8
0
100
AcDbPolyline
90
8
70
1
43
0.0
10
-112.8125
20
40.625
42
0.41421356237309503
10
-112.0625
20
41.375
10
-112.0625
20
53.875
42
0.41421356237309503
10
-112.8125
20
54.625
10
-125.3125
20
54.625
42
0.41421356237309503
10
-126.0625
20
53.875
10
-126.0625
20
41.375
42
0.41421356237309503
10
-125.3125
20
40.625
0
LWPOLYLINE
5
162
100
AcDbEntity
8
0
100
AcDbPolyline
90
8
70
1
43
0.0
10
-93.762500000000003
20
40.625
10
-106.2625
20
40.625000000000007
42
-0.41421356237309503
10
-107.0125
20
41.375
10
-107.01250000000002
20
53.875
42
-0.41421356237309503
10
-106.2625
20
54.625
10
-93.762500000000003
20
54.624999999999993
42
-0.41421356237309503
10
-93.012500000000017
20
53.875
10
-93.012499999999989
20
41.375
42
-0.41421356237309503
0
LWPOLYLINE
5
163
100
AcDbEntity
8
0
100
AcDbPolyline
90
8
70
1
43
0.0
10
-131.86250000000001
20
40.625
42
0.41421356237309503
10
-131.11250000000001
20
41.375
10
-131.11250000000001
20
53.875
42
0.41421356237309503
10
-131.86250000000001
20
54.624999999999993
10
-144.36250000000001
20
54.625
42
0.41421356237309503
10
-145.11250000000001
20
53.875
10
-145.11250000000001
20
41.375
42
0.41421356237309503
10
-144.36250000000001
20
40.625
0
LWPOLYLINE
5
164
100
AcDbEntity
8
0
100
AcDbPolyline
90
8
70
1
43
0.0
10
-150.91249999999999
20
40.625
42
0.41421356237309503
10
-150.16249999999999
20
41.375
10
-150.16250000000002
20
53.875
42
0.41421356237309503
10
-150.91249999999999
20
54.624999999999993
10
-163.41249999999999
20
54.625
42
0.41421356237309503
10
-164.16249999999997
20
53.875
10
-164.16249999999997
20
41.375
42
0.41421356237309503
10
-163.41249999999999
20
40.625
0
LWPOLYLINE
5
165
100
AcDbEntity
8
0
100
AcDbPolyline
90
8
70
1
43
0.0
10
-336.64999999999998
20
40.625
10
-349.14999999999998
20
40.624999999999972
42
-0.41421356237309503
10
-349.90000000000003
20
41.375
10
-349.90000000000003
20
53.875
42
-0.41421356237309503
10
-349.14999999999998
20
54.625
10
-336.64999999999998
20
54.625000000000028
42
-0.41421356237309503
10
-335.89999999999998
20
53.875
10
-335.89999999999998
20
41.375
42
-0.41421356237309503
0
LWPOLYLINE
5
166
100
AcDbEntity
8
0
100
AcDbPolyline
90
8
70
1
43
0.0
10
-317.60000000000002
20
40.625
10
-330.10000000000002
20
40.624999999999972
42
-0.41421356237309503
10
-330.85000000000008
20
41.375
10
-330.85000000000008
20
53.875
42
-0.41421356237309503
10
-330.10000000000002
20
54.625
10
-317.60000000000002
20
54.624999999999993
42
-0.41421356237309503
10
-316.85000000000008
20
53.875
10
-316.85000000000008
20
41.375
42
-0.41421356237309503
0
LWPOLYLINE
5
167
100
AcDbEntity
8
0
100
AcDbPolyline
90
20
70
1
43
0.0
10
-354.94999999999999
20
29.662000000000003
10
-353.69999999999999
20
29.662000000000027
42
-0.41421356237309503
10
-352.94999999999993
20
28.911999999999999
10
-352.94999999999993
20
23.412000000000003
42
-0.41421356237309503
10
-353.69999999999999
20
22.661999999999999
10
-354.94999999999999
20
22.661999999999999
10
-354.94999999999999
20
22.324999999999999
42
-0.41421356237309503
10
-355.69999999999999
20
21.574999999999996
10
-368.19999999999999
20
21.574999999999971
42
-0.41421356237309503
10
-368.95000000000005
20
22.324999999999999
10
-368.95000000000005
20
53.875
42
-0.41421356237309503
10
-368.19999999999999
20
54.625
10
-355.69999999999999
20
54.625000000000028
42
-0.41421356237309503
10
-354.94999999999999
20
53.875
10
-354.94999999999999
20
53.538000000000004
10
-353.69999999999999
20
53.538000000000032
42
-0.41421356237309503
10
-352.94999999999993
20
52.788000000000004
10
-352.94999999999993
20
47.288000000000004
42
-0.41421356237309503
10
-353.69999999999999
20
46.538000000000004
10
-354.94999999999999
20
46.538000000000004
0
LWPOLYLINE
5
168
100
AcDbEntity
8
0
100
AcDbPolyline
90
8
70
1
43
0.0
10
-298.55000000000007
20
40.625
10
-311.05000000000007
20
40.625000000000007
42
-0.41421356237309503
10
-311.80000000000001
20
41.375
10
-311.80000000000001
20
53.875
42
-0.41421356237309503
10
-311.05000000000007
20
54.625
10
-298.55000000000007
20
54.624999999999993
42
-0.41421356237309503
10
-297.80000000000007
20
53.875
10
-297.80000000000007
20
41.375
42
-0.41421356237309503
0
LWPOLYLINE
5
169
100
AcDbEntity
8
0
100
AcDbPolyline
90
42
70
1
43
0.0
10
-279.75675000000001
20
45.100000000000009
10
-279.75675000000001
20
46.93738482634096
42
-0.12221452534101668
10
-279.84375
20
47.288000000000004
10
-279.84375000000006
20
52.788000000000004
42
-0.12221452534102727
10
-279.75675000000001
20
53.138615173659083
10
-279.75675000000001
20
55.875
42
-0.41421356237309503
10
-279.00675000000001
20
56.625000000000007
10
-273.50675000000001
20
56.625
42
-0.41421356237309503
10
-272.75675000000001
20
55.875
10
-272.75675000000001
20
53.538000000000004
10
-271.31875000000002
20
53.538000000000004
10
-271.31875000000002
20
53.875
42
-0.41421356237309503
10
-270.56875000000002
20
54.625
10
-255.88075000000003
20
54.625
10
-255.88075000000001
20
55.875
42
-0.41421356237309503
10
-255.13075000000001
20
56.625000000000007
10
-249.63075000000003
20
56.625
42
-0.41421356237309503
10
-248.88075000000003
20
55.875
10
-248.88075000000001
20
54.625
10
-246.16250000000002
20
54.624999999999993
42
-0.41421356237309503
10
-245.41250000000002
20
53.875
10
-245.41250000000002
20
41.375
42
-0.41421356237309503
10
-246.16250000000002
20
40.625
10
-266.84375
20
40.625
10
-266.84375
20
35.575000000000003
10
-265.21249999999998
20
35.574999999999996
42
-0.41421356237309503
10
-264.46249999999998
20
34.825000000000003
10
-264.46249999999998
20
22.324999999999999
42
-0.41421356237309503
10
-265.21249999999998
20
21.574999999999996
10
-277.71249999999998
20
21.575000000000006
42
-0.41421356237309503
10
-278.46249999999998
20
22.324999999999999
10
-278.46249999999998
20
22.661999999999999
10
-279.09375
20
22.66200000000001
42
-0.41421356237309503
10
-279.84375
20
23.412000000000003
10
-279.84375
20
28.911999999999999
42
-0.41421356237309503
10
-279.09375
20
29.662000000000003
10
-278.46249999999998
20
29.662000000000003
10
-278.46249999999998
20
31.100000000000001
10
-280.09375
20
31.100000000000012
42
-0.41421356237309503
10
-280.84375
20
31.850000000000005
10
-280.84375
20
44.350000000000009
42
-0.41421356237309503
10
-280.09375
20
45.100000000000009
0
LWPOLYLINE
5
170
100
AcDbEntity
8
0
100
AcDbPolyline
90
8
70
1
43
0.0
10
-65.1875
20
59.675000000000004
10
-77.6875
20
59.675000000000004
42
-0.41421356237309503
10
-78.437500000000014
20
60.425000000000004
10
-78.437500000000014
20
72.925000000000011
42
-0.41421356237309503
10
-77.6875
20
73.675000000000011
10
-65.1875
20
73.675000000000011
42
-0.41421356237309503
10
-64.4375
20
72.925000000000011
10
-64.4375
20
60.425000000000004
42
-0.41421356237309503
0
LWPOLYLINE
5
171
100
AcDbEntity
8
0
100
AcDbPolyline
90
8
70
1
43
0.0
10
-46.137499999999996
20
59.675000000000004
10
-58.637499999999996
20
59.675000000000004
42
-0.41421356237309853
10
-59.387500000000003
20
60.425000000000004
10
-59.387500000000003
20
72.925000000000011
42
-0.41421356237309503
10
-58.637500000000003
20
73.675000000000011
10
-46.137499999999996
20
73.675000000000011
42
-0.41421356237309159
10
-45.387500000000003
20
72.925000000000011
10
-45.387500000000003
20
60.425000000000004
42
-0.41421356237309159
0
LWPOLYLINE
5
172
100
AcDbEntity
8
0
100
AcDbPolyline
90
8
70
1
43
0.0
10
-84.237500000000011
20
59.675000000000004
10
-96.737499999999997
20
59.675000000000011
42
-0.41421356237309503
10
-97.487499999999997
20
60.425000000000004
10
-97.487500000000011
20
72.925000000000011
42
-0.41421356237309503
10
-96.737499999999997
20
73.675000000000011
10
-84.237500000000011
20
73.674999999999997
42
-0.41421356237310197
10
-83.487500000000011
20
72.925000000000011
10
-83.487499999999983
20
60.425000000000004
42
-0.41421356237310197
0
LWPOLYLINE
5
173
100
AcDbEntity
8
0
100
AcDbPolyline
90
20
70
1
43
0.0
10
-5.9932500000000033
20
74.924999999999997
10
-5.9932500000000033
20
73.674999999999997
10
-5.6562500000000071
20
73.675000000000011
42
-0.41421356237309764
10
-4.90625
20
72.925000000000011
10
-4.9062499999999982
20
60.425000000000004
42
-0.41421356237309503
10
-5.65625
20
59.675000000000004
10
-39.587499999999984
20
59.675000000000004
42
-0.41421356237310197
10
-40.337500000000006
20
60.425000000000004
10
-40.337500000000006
20
72.925000000000011
42
-0.41421356237309503
10
-39.587500000000006
20
73.675000000000011
10
-36.869249999999987
20
73.674999999999997
10
-36.869250000000008
20
74.924999999999997
42
-0.41421356237309503
10
-36.119250000000001
20
75.674999999999997
10
-30.619249999999987
20
75.674999999999997
42
-0.41421356237308815
10
-29.869250000000001
20
74.924999999999997
10
-29.869249999999994
20
73.674999999999997
10
-12.993249999999996
20
73.674999999999997
10
-12.993250000000003
20
74.924999999999997
42
-0.41421356237309503
10
-12.243250000000002
20
75.674999999999997
10
-6.7432499999999962
20
75.674999999999983
42
-0.41421356237309331
0
LWPOLYLINE
5
174
100
AcDbEntity
8
0
100
AcDbPolyline
90
8
70
1
43
0.0
10
-179.48750000000001
20
59.675000000000004
10
-191.98750000000001
20
59.675000000000011
42
-0.41421356237309503
10
-192.73750000000001
20
60.425000000000004
10
-192.73750000000001
20
72.925000000000011
42
-0.41421356237309503
10
-191.98750000000001
20
73.675000000000011
10
-179.48750000000001
20
73.674999999999997
42
-0.41421356237309503
10
-178.73750000000001
20
72.925000000000011
10
-178.73750000000001
20
60.425000000000004
42
-0.41421356237309503
0
LWPOLYLINE
5
175
100
AcDbEntity
8
0
100
AcDbPolyline
90
8
70
1
43
0.0
10
-217.58750000000003
20
59.675000000000004
10
-230.08750000000003
20
59.675000000000011
42
-0.41421356237309503
10
-230.83750000000003
20
60.425000000000004
10
-230.83750000000003
20
72.925000000000011
42
-0.41421356237309503
10
-230.08750000000003
20
73.675000000000011
10
-217.58750000000003
20
73.674999999999997
42
-0.41421356237309503
10
-216.83750000000003
20
72.925000000000011
10
-216.83750000000003
20
60.425000000000004
42
-0.41421356237309503
0
LWPOLYLINE
5
176
100
AcDbEntity
8
0
100
AcDbPolyline
90
8
70
1
43
0.0
10
-160.4375
20
59.675000000000004
10
-172.9375
20
59.675000000000011
42
-0.41421356237309503
10
-173.6875
20
60.425000000000004
10
-173.6875
20
72.925000000000011
42
-0.41421356237309503
10
-172.9375
20
73.675000000000011
10
-160.4375
20
73.674999999999997
42
-0.41421356237309503
10
-159.6875
20
72.925000000000011
10
-159.6875
20
60.425000000000004
42
-0.41421356237309503
0
LWPOLYLINE
5
177
100
AcDbEntity
8
0
100
AcDbPolyline
90
8
70
1
43
0.0
10
-198.53750000000002
20
59.675000000000004
10
-211.03750000000002
20
59.675000000000011
42
-0.41421356237309503
10
-211.78750000000002
20
60.425000000000004
10
-211.78750000000002
20
72.925000000000011
42
-0.41421356237309503
10
-211.03750000000002
20
73.675000000000011
10
-198.53750000000002
20
73.674999999999997
42
-0.41421356237309503
10
-197.78750000000002
20
72.925000000000011
10
-197.78750000000002
20
60.425000000000004
42
-0.41421356237309503
0
LWPOLYLINE
5
178
100
AcDbEntity
8
0
100
AcDbPolyline
90
8
70
1
43
0.0
10
-122.33750000000001
20
59.675000000000004
42
0.41421356237309503
10
-121.58750000000001
20
60.425000000000004
10
-121.58750000000001
20
72.925000000000011
42
0.41421356237309503
10
-122.33750000000001
20
73.675000000000011
10
-134.83750000000001
20
73.675000000000011
42
0.41421356237309503
10
-135.58750000000001
20
72.925000000000011
10
-135.58750000000001
20
60.425000000000004
42
0.41421356237309503
10
-134.83750000000001
20
59.675000000000004
0
LWPOLYLINE
5
179
100
AcDbEntity
8
0
100
AcDbPolyline
90
8
70
1
43
0.0
10
-103.28749999999999
20
59.675000000000004
10
-115.78749999999999
20
59.675000000000011
42
-0.41421356237309503
10
-116.53749999999999
20
60.425000000000004
10
-116.53749999999999
20
72.925000000000011
42
-0.41421356237309503
10
-115.78749999999999
20
73.675000000000011
10
-103.28749999999999
20
73.674999999999997
42
-0.41421356237309503
10
-102.53749999999999
20
72.925000000000011
10
-102.53749999999999
20
60.425000000000004
42
-0.41421356237309503
0
LWPOLYLINE
5
180
100
AcDbEntity
8
0
100
AcDbPolyline
90
8
70
1
43
0.0
10
-141.38749999999999
20
59.675000000000004
42
0.41421356237309503
10
-140.63749999999999
20
60.425000000000004
10
-140.63750000000002
20
72.925000000000011
42
0.41421356237309503
10
-141.38749999999999
20
73.674999999999997
10
-153.88749999999999
20
73.675000000000011
42
0.41421356237309503
10
-154.63749999999999
20
72.925000000000011
10
-154.63749999999999
20
60.425000000000004
42
0.41421356237309503
10
-153.88749999999999
20
59.675000000000004
0
LWPOLYLINE
5
181
100
AcDbEntity
8
0
100
AcDbPolyline
90
4
70
1
43
0.0
10
-110.10659649432415
20
0.42843320251386374
10
-66.60659649432418
20
0.42843320251387312
42
-0.99999999999999989
10
-66.606596494324123
20
-1.071566797486122
10
-110.10659649432415
20
-1.0715667974861272
42
-0.99999999999999989
0
LWPOLYLINE
5
182
100
AcDbEntity
8
0
100
AcDbPolyline
90
4
70
1
43
0.0
10
-57.106596494324151
20
0.42843320251386374
10
-13.606596494324137
20
0.42843320251386452
42
-0.99999999999999989
10
-13.60659649432414
20
-1.0715667974861267
10
-57.106596494324151
20
-1.0715667974861249
42
-0.99999999999999989
0
LWPOLYLINE
5
183
100
AcDbEntity
8
0
100
AcDbPolyline
90
4
70
1
43
0.0
10
-137.60659649432412
20
-1.071566797486122
10
-181.10659649432415
20
-1.0715667974861545
42
-0.99999999999999989
10
-181.10659649432415
20
0.42843320251384642
10
-137.60659649432412
20
0.42843320251387762
42
-0.99999999999999989
0
LWPOLYLINE
5
184
100
AcDbEntity
8
0
100
AcDbPolyline
90
4
70
1
43
0.0
10
-190.60659649432412
20
-1.0715667974861347
10
-234.10659649432415
20
-1.0715667974861351
42
-0.99999999999999989
10
-234.10659649432407
20
0.42843320251386324
10
-190.60659649432421
20
0.42843320251386202
42
-0.99999999999999989
0
LWPOLYLINE
5
185
100
AcDbEntity
8
0
100
AcDbPolyline
90
4
70
1
43
0.0
10
-261.60659649432421
20
-1.0715667974861267
10
-305.10659649432409
20
-1.0715667974861267
42
-0.99999999999999989
10
-305.10659649432409
20
0.42843320251386346
10
-261.60659649432421
20
0.4284332025139001
42
-0.99999999999999989
0
LWPOLYLINE
5
186
100
AcDbEntity
8
0
100
AcDbPolyline
90
4
70
1
43
0.0
10
-314.60659649432421
20
-1.0715667974861576
10
-358.10659649432404
20
-1.0715667974861367
42
-0.99999999999999989
10
-358.10659649432404
20
0.42843320251386319
10
-314.60659649432409
20
0.42843320251385991
42
-0.99999999999999989
0
LWPOLYLINE
5
187
100
AcDbEntity
8
0
100
AcDbPolyline
90
4
70
1
43
0.0
10
-358.10659649432404
20
101.14843320251389
10
-314.60659649432432
20
101.14843320251396
42
-0.99999999999999989
10
-314.60659649432415
20
99.6484332025139
10
-358.10659649432404
20
99.648433202513928
42
-0.99999999999999989
0
LWPOLYLINE
5
188
100
AcDbEntity
8
0
100
AcDbPolyline
90
4
70
1
43
0.0
10
-302.60659649432409
20
101.14843320251396
10
-259.10659649432404
20
101.14843320251396
42
-0.99999999999999989
10
-259.10659649432409
20
99.648433202513971
10
-302.60659649432409
20
99.648433202513971
42
-0.99999999999999989
0
LWPOLYLINE
5
189
100
AcDbEntity
8
0
100
AcDbPolyline
90
4
70
1
43
0.0
10
-240.10659649432426
20
101.14843320251389
10
-204.10659649432415
20
101.14843320251396
42
-0.99999999999999989
10
-204.10659649432421
20
99.648433202513971
10
-240.10659649432404
20
99.648433202513928
42
-0.99999999999999989
0
LWPOLYLINE
5
190
100
AcDbEntity
8
0
100
AcDbPolyline
90
8
70
1
43
0.0
10
-61.325047092871294
20
96.100355449735446
10
-61.325000000000038
20
96.099997622935263
42
-0.41421356237303258
10
-62.075000000000031
20
95.349997622935248
10
-185.5684905986277
20
95.349997622935248
42
-0.45320794854871149
10
-186.31203720753933
20
96.198173181890638
10
-186.32499999999999
20
96.099997622935263
42
-0.41421356237306733
10
-185.57500000000002
20
96.849997622935277
10
-62.075047007511266
20
96.849997622935305
42
-0.41407382921296537
0
LWPOLYLINE
5
191
100
AcDbEntity
8
0
100
AcDbPolyline
90
4
70
1
43
0.0
10
-46.606596494324144
20
101.14843320251389
10
-3.1065964943241209
20
101.14843320251389
42
-0.99999999999999989
10
-3.1065964943241298
20
99.6484332025139
10
-46.606596494324144
20
99.648433202513871
42
-0.99999999999999989
0
ENDSEC
0
SECTION
2
OBJECTS
0
DICTIONARY
5
C
100
AcDbDictionary
3
ACAD_GROUP
350
D
3
ACAD_MLINESTYLE
350
17
0
DICTIONARY
5
D
100
AcDbDictionary
0
DICTIONARY
5
1A
330
C
100
AcDbDictionary
0
DICTIONARY
5
17
100
AcDbDictionary
0
ENDSEC
0
EOF
